<?xml version="1.0" encoding="UTF-8"?>
<svg version="1.1" xmlns="http://www.w3.org/2000/svg" width="660" height="327">
<path d="M0 0 C0.66 0.99 1.32 1.98 2 3 C1.67 3.99 1.34 4.98 1 6 C0.01 6 -0.98 6 -2 6 C-1.125 1.125 -1.125 1.125 0 0 Z " fill="#000000" transform="translate(341,30)"/>
<path d="M0 0 C1.32 0 2.64 0 4 0 C3.67 1.65 3.34 3.3 3 5 C4.65 5.33 6.3 5.66 8 6 C8 6.99 8 7.98 8 9 C6.68 9 5.36 9 4 9 C3.67 9.66 3.34 10.32 3 11 C4.79133978 11.05391993 6.58313899 11.09275571 8.375 11.125 C9.37273437 11.14820313 10.37046875 11.17140625 11.3984375 11.1953125 C14.16262173 11.27216848 14.16262173 11.27216848 16 9 C16.99 9 17.98 9 19 9 C19.66 8.34 20.32 7.68 21 7 C23.625 7.375 23.625 7.375 26 8 C26.33 10.97 26.66 13.94 27 17 C30.91499089 18.70216995 34.76684505 19.72837711 38.9375 20.625 C40.12214844 20.88539062 41.30679687 21.14578125 42.52734375 21.4140625 C45.95815204 22.0988818 45.95815204 22.0988818 49.31640625 21.9609375 C52 22 52 22 54 24 C54.08017423 26.98289742 54.04007406 29.86486842 53.90625 32.83984375 C53.86159607 34.15668907 53.86159607 34.15668907 53.81604004 35.50013733 C53.68808691 39.26528346 53.53617279 43.02937677 53.38623047 46.79370117 C53.28032366 49.5380172 53.18672354 52.28256409 53.09375 55.02734375 C53.05527954 55.88053696 53.01680908 56.73373016 52.97717285 57.61277771 C52.77872259 62.60140672 52.77872259 62.60140672 55 67 C57.98671885 68.18744701 60.96481722 69.16275355 64.03320312 70.10546875 C65.71752464 70.65580897 67.36319132 71.32127276 69 72 C69.33 72.99 69.66 73.98 70 75 C63.45203719 73.3630093 57.26674003 70.50669601 51 68 C51 53.48 51 38.96 51 24 C48.69 24.66 46.38 25.32 44 26 C43.32756454 59.10933816 42.89119939 92.21137886 42.87661743 125.32785034 C42.87499659 127.75511066 42.87143515 130.18236167 42.86743164 132.60961914 C42.86161331 136.43776455 42.86132645 140.26586997 42.86568069 144.09401703 C42.8666776 145.51007821 42.86608955 146.92614148 42.86384201 148.34220123 C42.86130956 150.27728746 42.86576236 152.21237912 42.87060547 154.14746094 C42.87140106 155.23508728 42.87219666 156.32271362 42.87301636 157.44329834 C42.82768681 159.9906188 42.82768681 159.9906188 44 162 C43.34 162 42.68 162 42 162 C42.33 162.66 42.66 163.32 43 164 C45.32156597 164.40729228 47.6568787 164.74438677 50 165 C49.814375 164.38125 49.62875 163.7625 49.4375 163.125 C49 161 49 161 50 159 C50.66 159 51.32 159 52 159 C52 160.98 52 162.96 52 165 C53.01320313 164.91621094 54.02640625 164.83242187 55.0703125 164.74609375 C56.42184621 164.64285159 57.77341042 164.5400082 59.125 164.4375 C59.79015625 164.38142578 60.4553125 164.32535156 61.140625 164.26757812 C65.2728041 163.96374143 68.94695741 164.14772469 73 165 C73 163.35 73 161.7 73 160 C73.66 160 74.32 160 75 160 C75 160.66 75 161.32 75 162 C78.3 162 81.6 162 85 162 C85 162.33 85 162.66 85 163 C81.7 163 78.4 163 75 163 C75 164.32 75 165.64 75 167 C66.5625141 167.03038859 58.12503074 167.04986426 49.6875 167.0625 C48.45114807 167.06444366 47.21479614 167.06638733 45.940979 167.06838989 C31.01652138 167.08484182 16.12021212 167.06789018 1.21362305 166.26782227 C0.28461182 166.21940186 -0.64439941 166.17098145 -1.6015625 166.12109375 C-2.36807129 166.0739624 -3.13458008 166.02683105 -3.92431641 165.97827148 C-6.10399055 166.00108859 -7.89473018 166.47139946 -10 167 C-11.61721832 166.7674725 -13.23396785 166.53011287 -14.84570312 166.26220703 C-19.45237458 165.70151289 -24.11681247 165.89961859 -28.75 165.9375 C-29.79027344 165.94201172 -30.83054687 165.94652344 -31.90234375 165.95117188 C-33.82130084 165.95986056 -35.74025056 165.97061004 -37.65917969 165.98413086 C-39.43942008 165.99619966 -41.2197187 166 -43 166 C-43.91418701 166.00523682 -44.82837402 166.01047363 -45.77026367 166.01586914 C-66.20427029 166.131863 -86.58024257 165.77148601 -107 165 C-107.33 165.66 -107.66 166.32 -108 167 C-108 166.34 -108 165.68 -108 165 C-119.22 165 -130.44 165 -142 165 C-142 158.73 -142 152.46 -142 146 C-144.31 146 -146.62 146 -149 146 C-149.99 145.34 -150.98 144.68 -152 144 C-147.64425167 142.84700779 -145.83348343 143.19441943 -141 144 C-141 135.75 -141 127.5 -141 119 C-143.31 119 -145.62 119 -148 119 C-150.21484375 117.6875 -150.21484375 117.6875 -151.9375 116 C-152.81728516 115.1646875 -152.81728516 115.1646875 -153.71484375 114.3125 C-154.13894531 113.879375 -154.56304687 113.44625 -155 113 C-154.34 112.67 -153.68 112.34 -153 112 C-152.01 112.66 -151.02 113.32 -150 114 C-148.68 114 -147.36 114 -146 114 C-145.67 114.66 -145.34 115.32 -145 116 C-143.68 116 -142.36 116 -141 116 C-141 115.01 -141 114.02 -141 113 C-144.04913228 111.98888907 -144.04913228 111.98888907 -147 113 C-147.22042969 112.4121875 -147.44085938 111.824375 -147.66796875 111.21875 C-149.43445422 108.27633431 -151.35871823 107.24698377 -154.3125 105.5 C-154.86574951 105.16959717 -155.41899902 104.83919434 -155.98901367 104.4987793 C-162.4357426 100.67769629 -168.96343504 96.98767662 -175.48754883 93.30078125 C-180.2198247 90.62181525 -184.86529488 87.87302022 -189.4128418 84.8894043 C-190.98756028 83.83704913 -190.98756028 83.83704913 -193 84 C-193 85.32 -193 86.64 -193 88 C-190.69 89.32 -188.38 90.64 -186 92 C-187.485 92.495 -187.485 92.495 -189 93 C-191.6875 91.5625 -191.6875 91.5625 -194 90 C-194.33 90.66 -194.66 91.32 -195 92 C-196.45365652 79.29727838 -195.69194374 66.73113722 -195 54 C-196.98 54.33 -198.96 54.66 -201 55 C-201.06058594 56.24136719 -201.12117188 57.48273438 -201.18359375 58.76171875 C-201.26803623 60.40365577 -201.35268236 62.04558232 -201.4375 63.6875 C-201.47681641 64.50412109 -201.51613281 65.32074219 -201.55664062 66.16210938 C-201.59853516 66.95810547 -201.64042969 67.75410156 -201.68359375 68.57421875 C-201.72025146 69.30213623 -201.75690918 70.03005371 -201.79467773 70.7800293 C-202.01938776 73.20962294 -202.52148387 75.60741935 -203 78 C-206.63 78 -210.26 78 -214 78 C-214 77.67 -214 77.34 -214 77 C-211.36 76.67 -208.72 76.34 -206 76 C-205.67 74.02 -205.34 72.04 -205 70 C-217.54 70 -230.08 70 -243 70 C-242.67 70.99 -242.34 71.98 -242 73 C-242.4375 75.1875 -242.4375 75.1875 -243 77 C-243.99 77 -244.98 77 -246 77 C-247.14500285 69.19636521 -246.79773542 61.83007996 -246 54 C-247.32 54 -248.64 54 -250 54 C-250.83493213 59.2592027 -251.25716071 64.4408049 -251.5 69.7578125 C-251.5609082 70.99517654 -251.5609082 70.99517654 -251.62304688 72.25753784 C-251.75177389 74.8798867 -251.8762201 77.50241335 -252 80.125 C-252.16437029 83.5652189 -252.33088397 87.00532358 -252.5 90.4453125 C-252.5405249 91.27033264 -252.5810498 92.09535278 -252.62280273 92.94537354 C-252.96142811 99.64261243 -253.44389073 106.31675822 -254 113 C-250.04 113.66 -246.08 114.32 -242 115 C-242 115.33 -242 115.66 -242 116 C-247.94 116.495 -247.94 116.495 -254 117 C-254.19400242 121.12478993 -254.38050052 125.24967835 -254.5625 129.375 C-254.61857422 130.550625 -254.67464844 131.72625 -254.73242188 132.9375 C-254.80493164 134.61972656 -254.80493164 134.61972656 -254.87890625 136.3359375 C-254.9260376 137.37282715 -254.97316895 138.4097168 -255.02172852 139.47802734 C-255.18477296 141.99669673 -255.18477296 141.99669673 -254 144 C-254.66 144 -255.32 144 -256 144 C-256.33 152.25 -256.66 160.5 -257 169 C-233.735 169.495 -233.735 169.495 -210 170 C-210 170.33 -210 170.66 -210 171 C-225.51 171 -241.02 171 -257 171 C-257.33 181.56 -257.66 192.12 -258 203 C-253.978125 202.979375 -249.95625 202.95875 -245.8125 202.9375 C-230.8565621 202.90078842 -215.94282639 203.38149464 -201 204 C-200.34 202.68 -199.68 201.36 -199 200 C-199 201.32 -199 202.64 -199 204 C-193.72 204 -188.44 204 -183 204 C-187.31980501 206.15990251 -189.23388603 206.21925734 -193.97167969 206.13525391 C-194.6647673 206.12579239 -195.35785492 206.11633087 -196.07194519 206.10658264 C-198.35552851 206.07299055 -200.63855917 206.02485293 -202.921875 205.9765625 C-204.50798105 205.95038649 -206.09410236 205.92512019 -207.68023682 205.90072632 C-211.84954164 205.83416226 -216.01852467 205.75525085 -220.18756104 205.67376709 C-224.44392572 205.59276203 -228.70047884 205.52343486 -232.95703125 205.453125 C-241.30491625 205.31351265 -249.65249745 205.16085567 -258 205 C-258.33 207.31 -258.66 209.62 -259 212 C-249.1 212.33 -239.2 212.66 -229 213 C-228.86607143 235.09821429 -228.86607143 235.09821429 -229.5 241.125 C-230.07416424 246.7231013 -230 252.37253141 -230 258 C-216.635 258.495 -216.635 258.495 -203 259 C-202.855625 254.99875 -202.71125 250.9975 -202.5625 246.875 C-202.11283002 234.57975955 -201.58403221 222.28952884 -201 210 C-193.57142857 211 -193.57142857 211 -190 212 C-190.14024219 214.47960136 -190.2869185 216.95852402 -190.4375 219.4375 C-190.47681641 220.14455078 -190.51613281 220.85160156 -190.55664062 221.58007812 C-190.88671875 226.88671875 -190.88671875 226.88671875 -192 228 C-194.67058851 228.14115161 -197.32432238 228.04247107 -200 228 C-199.67 229.32 -199.34 230.64 -199 232 C-195.04 232.33 -191.08 232.66 -187 233 C-187 233.33 -187 233.66 -187 234 C-191.29 234.33 -195.58 234.66 -200 235 C-200 236.32 -200 237.64 -200 239 C-197.36 239 -194.72 239 -192 239 C-190.70995704 241.58008592 -190.79589776 243.55741574 -190.75 246.4375 C-190.72421875 247.40558594 -190.6984375 248.37367188 -190.671875 249.37109375 C-191 252 -191 252 -192.31640625 253.8359375 C-194.82935909 255.57343157 -197.03238327 255.19784112 -200 255 C-199.67 256.32 -199.34 257.64 -199 259 C-181.18 259 -163.36 259 -145 259 C-144.67 251.08 -144.34 243.16 -144 235 C-144.66 234.67 -145.32 234.34 -146 234 C-145.67854004 233.46084961 -145.35708008 232.92169922 -145.02587891 232.36621094 C-143.78523049 229.50462968 -143.68127467 227.25497256 -143.5859375 224.140625 C-143.54726562 223.02558594 -143.50859375 221.91054688 -143.46875 220.76171875 C-143.4378125 219.60285156 -143.406875 218.44398438 -143.375 217.25 C-143.33632812 216.07566406 -143.29765625 214.90132812 -143.2578125 213.69140625 C-143.1636018 210.79442732 -143.07798398 207.89745374 -143 205 C-142.34 204.67 -141.68 204.34 -141 204 C-141 206.97 -141 209.94 -141 213 C-140.16283951 212.99777939 -139.32567902 212.99555878 -138.46315002 212.99327087 C-130.59032586 212.97326968 -122.71751017 212.95802675 -114.84466648 212.94818783 C-110.79674258 212.94295959 -106.74883959 212.93586301 -102.70092773 212.92456055 C-98.79764029 212.91372957 -94.89437301 212.90772272 -90.9910717 212.90512276 C-89.49866353 212.90326889 -88.00625652 212.899649 -86.51385689 212.89426994 C-84.43051861 212.88705669 -82.34726469 212.88600917 -80.26391602 212.88647461 C-79.07588882 212.884254 -77.88786163 212.88203339 -76.66383362 212.87974548 C-74 213 -74 213 -73 214 C-70.9192521 214.07600211 -68.83594092 214.08298883 -66.75390625 214.0625 C-65.43970703 214.05476562 -64.12550781 214.04703125 -62.77148438 214.0390625 C-60.6968404 214.02075611 -58.62222459 214.00060788 -56.54760742 213.97949219 C-48.8614826 213.9080021 -41.23358605 213.99507303 -33.56298828 214.48413086 C-24.53710433 215.01936375 -15.5280021 215.21608698 -6.48828125 215.31640625 C-4.86190947 215.33711807 -3.23554131 215.35811643 -1.60917664 215.37937927 C1.77818404 215.42286475 5.16556183 215.46381193 8.55297852 215.50268555 C12.7924238 215.55141017 17.03178554 215.60515803 21.27114677 215.66066933 C41.72984073 215.93327314 41.72984073 215.93327314 62.18994141 215.99169922 C62.91369996 215.98999568 63.63745852 215.98829214 64.38314915 215.98653698 C67.76857478 215.97730664 71.15363115 215.96087231 74.53898621 215.9344635 C76.3078997 215.92617775 76.3078997 215.92617775 78.11254883 215.91772461 C79.13488113 215.90970322 80.15721344 215.90168182 81.21052551 215.89341736 C84 216 84 216 86.47677612 216.49804688 C89.4553714 217.09058851 92.22196644 217.11971086 95.2590332 217.11352539 C96.49994217 217.11344986 97.74085114 217.11337433 99.0193634 217.11329651 C100.36316977 217.10819072 101.70697571 217.10297474 103.05078125 217.09765625 C104.43368987 217.09578965 105.81659915 217.09436689 107.19950867 217.09336853 C110.82774706 217.08956237 114.455945 217.07974843 118.08416748 217.06866455 C121.79113213 217.05840945 125.49810336 217.05386215 129.20507812 217.04882812 C136.47007046 217.03812435 143.73502955 217.0210709 151 217 C151.93642798 220.45814744 152.06785741 223.40355746 152 227 C151.90215215 239.34106049 152.51818535 251.67070737 153 264 C160.59 264.33 168.18 264.66 176 265 C176 268.3 176 271.6 176 275 C175.34 274.67 174.68 274.34 174 274 C174 271.69 174 269.38 174 267 C173.11646851 267.00785522 173.11646851 267.00785522 172.21508789 267.01586914 C169.49756983 267.03689803 166.78006899 267.04974146 164.0625 267.0625 C163.13630859 267.07087891 162.21011719 267.07925781 161.25585938 267.08789062 C159.87817383 267.09272461 159.87817383 267.09272461 158.47265625 267.09765625 C157.22367554 267.10551147 157.22367554 267.10551147 155.94946289 267.11352539 C153.56908923 267.02190435 151.31137102 266.8068524 148.95324707 266.51147461 C143.8991611 265.9403092 138.88112862 265.78793298 133.79858398 265.70288086 C132.82191269 265.68322769 131.84524139 265.66357452 130.838974 265.64332581 C127.64140936 265.57994142 124.44376906 265.5223483 121.24609375 265.46484375 C119.01692521 265.42179127 116.78776368 265.37837457 114.55860901 265.33460999 C108.71441009 265.2208448 102.87012958 265.11200467 97.02581787 265.00421143 C91.05296171 264.89316838 85.08019655 264.77743801 79.10742188 264.66210938 C67.40503195 264.43683468 55.70255041 264.21676612 44 264 C47 262 47 262 51 262 C50.34 260.35 49.68 258.7 49 257 C49.66 256.34 50.32 255.68 51 255 C51.69748583 253.68252676 52.36959957 252.35085807 53 251 C53.125 257.625 53.125 257.625 52 261 C52.845625 260.979375 53.69125 260.95875 54.5625 260.9375 C58 261 58 261 61.5625 261.8125 C63.2640625 261.9053125 63.2640625 261.9053125 65 262 C66.175625 260.7625 66.175625 260.7625 67.375 259.5 C70 257 70 257 72.30859375 256.88671875 C74.57238893 257.15865671 76.77376452 257.51013119 79 258 C79.33 258.99 79.66 259.98 80 261 C86.21350089 261.74711434 92.37317173 262.24552132 98.625 262.5 C99.5641626 262.53988037 100.5033252 262.57976074 101.47094727 262.62084961 C117.97326661 263.2802226 134.48954994 263.61008809 151 264 C150.84225098 263.08951904 150.68450195 262.17903809 150.52197266 261.2409668 C148.37341926 247.90043997 149.03353236 234.41159708 150 221 C149.01 221 148.02 221 147 221 C146.67 224.96 146.34 228.92 146 233 C145.01 232.67 144.02 232.34 143 232 C143.01740234 230.93458984 143.01740234 230.93458984 143.03515625 229.84765625 C143.04417969 228.92855469 143.05320312 228.00945312 143.0625 227.0625 C143.07990234 225.68771484 143.07990234 225.68771484 143.09765625 224.28515625 C143.25949049 222.03406673 143.25949049 222.03406673 142 221 C140.26978142 220.84023783 138.53324749 220.74833068 136.796875 220.68359375 C135.6840918 220.64161865 134.57130859 220.59964355 133.42480469 220.55639648 C132.21211914 220.51716064 130.99943359 220.4779248 129.75 220.4375 C128.51411133 220.3950415 127.27822266 220.35258301 126.00488281 220.30883789 C112.33606416 219.88136477 98.67454785 219.91029816 85 220 C84.67 224.29 84.34 228.58 84 233 C82.12815629 229.25631258 81.76000233 228.1599209 81.875 224.25 C81.89304687 223.45078125 81.91109375 222.6515625 81.9296875 221.828125 C81.96449219 220.92320312 81.96449219 220.92320312 82 220 C81.01 220 80.02 220 79 220 C78.67 223.96 78.34 227.92 78 232 C77.01 231.67 76.02 231.34 75 231 C75.33 227.04 75.66 223.08 76 219 C70.72 219.33 65.44 219.66 60 220 C60 223.63 60 227.26 60 231 C59.34 231.33 58.68 231.66 58 232 C57.14256349 227.60563789 56.91051442 223.47427924 57 219 C55.68 219 54.36 219 53 219 C53 222.96 53 226.92 53 231 C50.65078653 232.17460674 49.52016517 232.05142293 46.91821289 231.90087891 C46.05546249 231.85571136 45.1927121 231.81054382 44.30381775 231.76400757 C43.34890945 231.7104007 42.39400116 231.65679382 41.41015625 231.6015625 C27.50438834 230.91079345 13.59719579 230.65821359 -0.32202148 230.44238281 C-3.90025131 230.38664425 -7.47829168 230.32285409 -11.05635166 230.25720787 C-13.85046253 230.20710784 -16.64463782 230.16202268 -19.43885612 230.11836624 C-21.39423497 230.08670138 -23.34953309 230.05017044 -25.30482483 230.01351929 C-26.49144211 229.9966507 -27.67805939 229.9797821 -28.90063477 229.96240234 C-29.93712662 229.94543304 -30.97361847 229.92846375 -32.04151917 229.91098022 C-35.10899947 230.00327976 -37.98809924 230.42764672 -41 231 C-39.68 231.66 -38.36 232.32 -37 233 C-37 233.66 -37 234.32 -37 235 C-37.639375 235.103125 -38.27875 235.20625 -38.9375 235.3125 C-39.9584375 235.6528125 -39.9584375 235.6528125 -41 236 C-42.22716023 239.6814807 -42.18406814 243.10410762 -42.1875 246.9375 C-42.19974609 247.65357422 -42.21199219 248.36964844 -42.22460938 249.10742188 C-42.23523681 252.92975445 -42.2070714 255.82363567 -40 259 C-38.06152119 259.69601373 -38.06152119 259.69601373 -35.66796875 259.71484375 C-34.68103027 259.7701123 -33.6940918 259.82538086 -32.67724609 259.88232422 C-30.85700928 259.94057373 -30.85700928 259.94057373 -29 260 C-28.26364319 260.02572083 -27.52728638 260.05144165 -26.76861572 260.07794189 C-20.61754913 260.28828121 -14.46564238 260.42952656 -8.3125 260.5625 C-6.43553903 260.60578082 -4.55858578 260.64939784 -2.68164062 260.69335938 C1.87882646 260.79945023 6.43937398 260.90098746 11 261 C11 261.33 11 261.66 11 262 C10.23100435 261.99907821 9.46200871 261.99815641 8.66971016 261.99720669 C-10.06877199 261.97509215 -28.80725152 261.95855954 -47.54574394 261.94818783 C-56.60764918 261.94303843 -65.66954568 261.93602163 -74.73144531 261.92456055 C-82.63267654 261.91457222 -90.53390145 261.90813671 -98.43513882 261.90591151 C-102.61613887 261.90461144 -106.79712084 261.90157029 -110.97811508 261.89426994 C-114.91951848 261.8874442 -118.86089647 261.88539629 -122.80230522 261.88689232 C-124.24295757 261.88661892 -125.68361083 261.8846529 -127.12425804 261.88079453 C-134.15204917 261.86290783 -141.07460172 261.94212347 -148.05853271 262.77415466 C-150.42360125 263.04927632 -152.75291718 263.11441608 -155.1328125 263.09765625 C-156.3703125 263.09282227 -156.3703125 263.09282227 -157.6328125 263.08789062 C-158.45523438 263.07951172 -159.27765625 263.07113281 -160.125 263.0625 C-160.98609375 263.05798828 -161.8471875 263.05347656 -162.734375 263.04882812 C-164.82294785 263.03722494 -166.91148407 263.0192984 -169 263 C-169 266.3 -169 269.6 -169 273 C-212.23 273 -255.46 273 -300 273 C-300.78984608 269.0507696 -301.09354376 267.02367675 -300.625 263.25 C-300.53476562 262.47140625 -300.44453125 261.6928125 -300.3515625 260.890625 C-300 259 -300 259 -299 258 C-297.36743242 257.84285346 -295.72864662 257.74914586 -294.08984375 257.68359375 C-293.199021 257.64548584 -292.30819824 257.60737793 -291.39038086 257.56811523 C-290.25093018 257.52501221 -289.11147949 257.48190918 -287.9375 257.4375 C-284.328125 257.293125 -280.71875 257.14875 -277 257 C-276.01 239.18 -276.01 239.18 -275 221 C-272.53721199 219.768606 -270.7204945 219.92840804 -268 220 C-267.67 217.69 -267.34 215.38 -267 213 C-264.03 213.99 -264.03 213.99 -261 215 C-261.16983398 214.349104 -261.33966797 213.69820801 -261.51464844 213.02758789 C-262.13365778 209.16625248 -261.95937551 205.44482907 -261.765625 201.55859375 C-261.72806595 200.70897568 -261.6905069 199.8593576 -261.65180969 198.98399353 C-261.52404877 196.13484374 -261.38718362 193.28621059 -261.25 190.4375 C-261.15580321 188.39601292 -261.06198132 186.35450851 -260.96850586 184.31298828 C-260.71024206 178.72467607 -260.44254764 173.13685405 -260.17181396 167.5491333 C-259.99823983 163.96364048 -259.82638455 160.37806829 -259.65478516 156.79248047 C-257.97748295 121.84929128 -256.081627 86.92135679 -254 52 C-251.2722798 51.22406209 -249.47489941 51.01909457 -246.5625 51.125 C-242.6691275 50.98839044 -241.17099401 50.11399601 -238 48 C-237.01 48 -236.02 48 -235 48 C-235.99 46.02 -235.99 46.02 -237 44 C-236.01 43.01 -236.01 43.01 -235 42 C-232.875 42.375 -232.875 42.375 -231 43 C-231.99 43.495 -231.99 43.495 -233 44 C-227.72 44 -222.44 44 -217 44 C-219.64 43.67 -222.28 43.34 -225 43 C-225 42.67 -225 42.34 -225 42 C-219.39 42 -213.78 42 -208 42 C-206.35649921 45.28700157 -205.58678331 47.47930015 -205 51 C-202.28407197 51.86909697 -200.21656157 52 -197.3125 52 C-196.219375 52 -195.12625 52 -194 52 C-193.67 52.33 -193.34 52.66 -193 53 C-193.04990252 54.81293593 -193.1544002 56.6244127 -193.28125 58.43359375 C-194.2763946 70.35922158 -194.2763946 70.35922158 -190.38525391 81.16015625 C-186.40754978 84.47218808 -181.88841764 86.48498898 -177.04931641 88.23779297 C-175 89 -175 89 -171.82421875 90.66015625 C-166.87211545 93.00949433 -161.84535889 93.13068548 -156.42919922 93.20532227 C-155.13859589 93.22526749 -153.84799255 93.24521271 -152.51828003 93.26576233 C-151.11375098 93.28279225 -149.70922007 93.29966919 -148.3046875 93.31640625 C-146.83333866 93.33705483 -145.36199469 93.35805284 -143.89065552 93.37937927 C-140.79562381 93.42329207 -137.7005723 93.46417385 -134.60546875 93.50268555 C-130.72870491 93.55098418 -126.85204495 93.60477721 -122.97538376 93.66065407 C-103.9822185 93.93309174 -84.99537086 94.06006969 -66 94 C-66 86.41 -66 78.82 -66 71 C-62.28668597 70.07167149 -58.59369969 69.36339833 -54.828125 68.6953125 C-51.07669141 67.77299872 -47.59989959 66.40166303 -44 65 C-42.90180178 49.99782788 -42.89118379 35.03672639 -43 20 C-41.35 20 -39.7 20 -38 20 C-38.33 20.66 -38.66 21.32 -39 22 C-39.23771104 24.58488748 -39.40573277 27.14289085 -39.52734375 29.734375 C-39.56866928 30.59206482 -39.60999481 31.44975464 -39.65257263 32.33343506 C-40.3035345 47.43575043 -40.3572692 62.56331106 -40.53222656 77.67687988 C-40.58319015 82.00857937 -40.63847832 86.34022368 -40.69335938 90.671875 C-40.79971027 99.11453618 -40.90140839 107.55724466 -41 116 C-41.33 116 -41.66 116 -42 116 C-42 110.06 -42 104.12 -42 98 C-42.66 98 -43.32 98 -44 98 C-44 97.34 -44 96.68 -44 96 C-43.34 96 -42.68 96 -42 96 C-42.10952116 92.20771856 -42.24023241 88.4164616 -42.375 84.625 C-42.42140625 83.00464844 -42.42140625 83.00464844 -42.46875 81.3515625 C-42.50742187 80.3203125 -42.54609375 79.2890625 -42.5859375 78.2265625 C-42.6173584 77.27346191 -42.6487793 76.32036133 -42.68115234 75.33837891 C-42.78555796 72.81104824 -42.78555796 72.81104824 -45 71 C-44.01 71 -43.02 71 -42 71 C-42 70.01 -42 69.02 -42 68 C-42.91523438 68.28875 -43.83046875 68.5775 -44.7734375 68.875 C-46.55621094 69.431875 -46.55621094 69.431875 -48.375 70 C-50.15003906 70.556875 -50.15003906 70.556875 -51.9609375 71.125 C-55 72 -55 72 -57 72 C-56.814375 72.515625 -56.62875 73.03125 -56.4375 73.5625 C-55.84580483 76.85908739 -56.432733 79.72245735 -57 83 C-57.33 83 -57.66 83 -58 83 C-58.33 80.03 -58.66 77.06 -59 74 C-60.32 73.67 -61.64 73.34 -63 73 C-63.33 73.66 -63.66 74.32 -64 75 C-63.34 75.33 -62.68 75.66 -62 76 C-62.33 76.33 -62.66 76.66 -63 77 C-63.15620555 78.41327947 -63.25056173 79.8335459 -63.31640625 81.25390625 C-63.35830078 82.10791016 -63.40019531 82.96191406 -63.44335938 83.84179688 C-63.48267578 84.73962891 -63.52199219 85.63746094 -63.5625 86.5625 C-63.62727539 87.91504883 -63.62727539 87.91504883 -63.69335938 89.29492188 C-63.79978142 91.52978485 -63.90179988 93.76476308 -64 96 C-63.34 96.33 -62.68 96.66 -62 97 C-62.66 97.66 -63.32 98.32 -64 99 C-64.16797396 100.90761852 -64.16797396 100.90761852 -63.94140625 103.078125 C-63.8846875 103.90256104 -63.82796875 104.72699707 -63.76953125 105.57641602 C-63.70121094 106.45869873 -63.63289062 107.34098145 -63.5625 108.25 C-63.07862106 115.61271772 -63.12098878 122.53550578 -63.8125 129.8828125 C-64.05230002 133.86948781 -63.64846089 137.65209181 -63.19140625 141.609375 C-62.93242893 144.84394889 -63.45850261 147.81118203 -64 151 C-64.21465743 155.19774537 -64.02787889 158.88848445 -63 163 C-56.73 163 -50.46 163 -44 163 C-44.0309375 158.854375 -44.0309375 158.854375 -44.0625 154.625 C-44.10644086 142.07077567 -43.55626013 129.53952358 -43 117 C-42.34 117 -41.68 117 -41 117 C-40.67 132.18 -40.34 147.36 -40 163 C-38.35 163 -36.7 163 -35 163 C-34.98018066 162.04109863 -34.96036133 161.08219727 -34.93994141 160.09423828 C-34.86395855 156.54188447 -34.7752307 152.98994424 -34.68261719 149.43798828 C-34.64429699 147.89965979 -34.60944944 146.36124075 -34.578125 144.82275391 C-34.53253941 142.61327724 -34.4745366 140.40442552 -34.4140625 138.1953125 C-34.40251129 137.50567413 -34.39096008 136.81603577 -34.37905884 136.10549927 C-34.22774341 131.22774341 -34.22774341 131.22774341 -32 129 C-32.66 129 -33.32 129 -34 129 C-34.1005824 107.21888154 -33.8224374 85.44493403 -33.53643799 63.66619873 C-33.47489549 58.95196052 -33.41527489 54.237698 -33.35546875 49.5234375 C-33.23880765 40.34893426 -33.12009793 31.17445886 -33 22 C-34.32 21.67 -35.64 21.34 -37 21 C-36.67 20.67 -36.34 20.34 -36 20 C-34.700625 20.061875 -33.40125 20.12375 -32.0625 20.1875 C-26.45137684 20.28673208 -22.01494415 18.34519309 -17 16 C-16.67 13.36 -16.34 10.72 -16 8 C-14.35 7.34 -12.7 6.68 -11 6 C-10.67 7.32 -10.34 8.64 -10 10 C-9.34 10 -8.68 10 -8 10 C-8 9.01 -8 8.02 -8 7 C-7.34 7 -6.68 7 -6 7 C-6 8.32 -6 9.64 -6 11 C-4.35 10.67 -2.7 10.34 -1 10 C-1.66 9.67 -2.32 9.34 -3 9 C-3 7.68 -3 6.36 -3 5 C-2.01 5 -1.02 5 0 5 C0 3.35 0 1.7 0 0 Z M-13 11 C-13.33 12.65 -13.66 14.3 -14 16 C-13.01 16.495 -13.01 16.495 -12 17 C-12 15.02 -12 13.04 -12 11 C-12.33 11 -12.66 11 -13 11 Z M22 12 C21.67 13.32 21.34 14.64 21 16 C21.99 16 22.98 16 24 16 C24 14.68 24 13.36 24 12 C23.34 12 22.68 12 22 12 Z M1 19 C0.67 19.66 0.34 20.32 0 21 C2.89186786 22.33304698 2.89186786 22.33304698 5.1875 21.0625 C5.785625 20.711875 6.38375 20.36125 7 20 C4.92446352 19.4465236 3.15634036 19 1 19 Z M-6 20 C-2 21 -2 21 -2 21 Z M9 20 C9 20.33 9 20.66 9 21 C10.65 21 12.3 21 14 21 C14 20.67 14 20.34 14 20 C12.35 20 10.7 20 9 20 Z M21 20 C25 21 25 21 25 21 Z M-28 27 C-28 29.31 -28 31.62 -28 34 C-27.34 34 -26.68 34 -26 34 C-25.67 32.02 -25.34 30.04 -25 28 C-25.99 27.67 -26.98 27.34 -28 27 Z M-19 27 C-19 29.31 -19 31.62 -19 34 C-18.34 34 -17.68 34 -17 34 C-17 32.02 -17 30.04 -17 28 C-17.66 27.67 -18.32 27.34 -19 27 Z M0 27 C0 29.31 0 31.62 0 34 C0.99 34 1.98 34 3 34 C2.34 31.69 1.68 29.38 1 27 C0.67 27 0.34 27 0 27 Z M-14 28 C-14 28.99 -14 29.98 -14 31 C-13.01 30.67 -12.02 30.34 -11 30 C-11 29.34 -11 28.68 -11 28 C-11.99 28 -12.98 28 -14 28 Z M-7 28 C-7.33 28.66 -7.66 29.32 -8 30 C-6.77409808 32.07977297 -6.77409808 32.07977297 -5 34 C-3.68 34 -2.36 34 -1 34 C-1.33 32.02 -1.66 30.04 -2 28 C-3.65 28 -5.3 28 -7 28 Z M5 28 C5.33 28.66 5.66 29.32 6 30 C6.66666667 31.33333333 7.33333333 32.66666667 8 34 C9.32 34 10.64 34 12 34 C12 32.02 12 30.04 12 28 C11.01 28 10.02 28 9 28 C7.68 28 6.36 28 5 28 Z M14 28 C14 29.98 14 31.96 14 34 C14.99 34 15.98 34 17 34 C16.67 32.02 16.34 30.04 16 28 C15.34 28 14.68 28 14 28 Z M21 28 C21 29.98 21 31.96 21 34 C21.66 33.67 22.32 33.34 23 33 C23 32.34 23 31.68 23 31 C23.66 31 24.32 31 25 31 C25 30.01 25 29.02 25 28 C23.68 28 22.36 28 21 28 Z M27 28 C26.67 29.98 26.34 31.96 26 34 C26.99 34 27.98 34 29 34 C29 32.35 29 30.7 29 29 C28.34 28.67 27.68 28.34 27 28 Z M31 28 C30.67 29.98 30.34 31.96 30 34 C30.99 33.67 31.98 33.34 33 33 C33 31.35 33 29.7 33 28 C32.34 28 31.68 28 31 28 Z M41 30 C42 32 42 32 42 32 Z M40 33 C40.66 33.66 41.32 34.32 42 35 C42 34.34 42 33.68 42 33 C41.34 33 40.68 33 40 33 Z M-30 37 C-31.35439668 39.70879335 -31.06501451 42.00933268 -31 45 C-22.77637211 45.26206905 -14.55270742 45.52293948 -6.3289938 45.78230286 C-2.50991913 45.90278785 1.30914183 46.02367718 5.12817383 46.14550781 C8.81748936 46.26318519 12.50683776 46.37977793 16.19621086 46.49563599 C17.59993639 46.53990489 19.0036499 46.58455685 20.40735054 46.62960815 C22.38164166 46.69290522 24.35598133 46.75468263 26.33032227 46.81640625 C27.45173111 46.85193604 28.57313995 46.88746582 29.72853088 46.92407227 C33.15351453 47.00356293 36.57421904 47.0127498 40 47 C41.04214691 42.38492226 41.04214691 42.38492226 40 38 C16.65847535 37.22510919 -6.6458168 36.85465129 -30 37 Z M-233 46 C-233.33 46.66 -233.66 47.32 -234 48 C-226.41 48 -218.82 48 -211 48 C-211.33 47.34 -211.66 46.68 -212 46 C-218.93 46 -225.86 46 -233 46 Z M-23 49 C-23 50.65 -23 52.3 -23 54 C-22.01 54 -21.02 54 -20 54 C-20 52.35 -20 50.7 -20 49 C-20.99 49 -21.98 49 -23 49 Z M-16 49 C-16.33 50.32 -16.66 51.64 -17 53 C-15.68 53.33 -14.36 53.66 -13 54 C-13 52.35 -13 50.7 -13 49 C-13.99 49 -14.98 49 -16 49 Z M-9 49 C-9.66 50.32 -10.32 51.64 -11 53 C-9.68 53 -8.36 53 -7 53 C-7.33 51.68 -7.66 50.36 -8 49 C-8.33 49 -8.66 49 -9 49 Z M-4 49 C-4.33 50.65 -4.66 52.3 -5 54 C-4.01 54 -3.02 54 -2 54 C-2.33 52.35 -2.66 50.7 -3 49 C-3.33 49 -3.66 49 -4 49 Z M1 49 C0.67 50.32 0.34 51.64 0 53 C3.04913228 54.01111093 3.04913228 54.01111093 6 53 C5.67 52.01 5.34 51.02 5 50 C2.98491642 49.26676204 2.98491642 49.26676204 1 49 Z M8 49 C7.67 50.65 7.34 52.3 7 54 C8.32 53.67 9.64 53.34 11 53 C10.67 51.68 10.34 50.36 10 49 C9.34 49 8.68 49 8 49 Z M14 49 C13.34 50.32 12.68 51.64 12 53 C13.485 53.99 13.485 53.99 15 55 C15.66 54.67 16.32 54.34 17 54 C16.67 52.35 16.34 50.7 16 49 C15.34 49 14.68 49 14 49 Z M20 49 C19.67 50.65 19.34 52.3 19 54 C20.32 54 21.64 54 23 54 C22.67 52.35 22.34 50.7 22 49 C21.34 49 20.68 49 20 49 Z M26 49 C25.67 50.65 25.34 52.3 25 54 C26.32 53.67 27.64 53.34 29 53 C28.67 51.68 28.34 50.36 28 49 C27.34 49 26.68 49 26 49 Z M32 49 C31.67 50.65 31.34 52.3 31 54 C31.99 54 32.98 54 34 54 C33.67 52.35 33.34 50.7 33 49 C32.67 49 32.34 49 32 49 Z M-28 50 C-28 51.32 -28 52.64 -28 54 C-27.34 54 -26.68 54 -26 54 C-26 52.68 -26 51.36 -26 50 C-26.66 50 -27.32 50 -28 50 Z M37 50 C37 51.32 37 52.64 37 54 C37.66 54.33 38.32 54.66 39 55 C39 53.35 39 51.7 39 50 C38.34 50 37.68 50 37 50 Z M-217 51 C-217 51.66 -217 52.32 -217 53 C-216.34 52.67 -215.68 52.34 -215 52 C-215.66 51.67 -216.32 51.34 -217 51 Z M-22 58 C-22 59.32 -22 60.64 -22 62 C-21.01 61.34 -20.02 60.68 -19 60 C-19.99 59.34 -20.98 58.68 -22 58 Z M-5 58 C-5.33 58.99 -5.66 59.98 -6 61 C-5.01 61 -4.02 61 -3 61 C-3.33 60.01 -3.66 59.02 -4 58 C-4.33 58 -4.66 58 -5 58 Z M0 58 C0 59.32 0 60.64 0 62 C0.99 61.67 1.98 61.34 3 61 C2.01 60.01 1.02 59.02 0 58 Z M6 58 C6 59.32 6 60.64 6 62 C6.99 61.67 7.98 61.34 9 61 C8.67 60.01 8.34 59.02 8 58 C7.34 58 6.68 58 6 58 Z M-232 59 C-231.67 59.99 -231.34 60.98 -231 62 C-231 61.01 -231 60.02 -231 59 C-231.33 59 -231.66 59 -232 59 Z M-16 58 C-16.99 58.495 -16.99 58.495 -18 59 C-18 59.66 -18 60.32 -18 61 C-17.01 61 -16.02 61 -15 61 C-15.33 60.01 -15.66 59.02 -16 58 Z M-12 59 C-12 59.66 -12 60.32 -12 61 C-11.01 61 -10.02 61 -9 61 C-9 60.34 -9 59.68 -9 59 C-9.99 59 -10.98 59 -12 59 Z M11 59 C10.67 59.66 10.34 60.32 10 61 C12.475 61.495 12.475 61.495 15 62 C15 61.01 15 60.02 15 59 C13.68 59 12.36 59 11 59 Z M17 59 C17 59.66 17 60.32 17 61 C18.83284443 62.12516085 18.83284443 62.12516085 21 63 C21.99 62.67 22.98 62.34 24 62 C26.1875 62.4375 26.1875 62.4375 28 63 C28 61.68 28 60.36 28 59 C24.37 59 20.74 59 17 59 Z M32 59 C31.34 59.66 30.68 60.32 30 61 C31.32 61.33 32.64 61.66 34 62 C34 61.01 34 60.02 34 59 C33.34 59 32.68 59 32 59 Z M37 59 C37 59.99 37 60.98 37 62 C37.99 62 38.98 62 40 62 C39.67 61.01 39.34 60.02 39 59 C38.34 59 37.68 59 37 59 Z M-241 60 C-240 62 -240 62 -240 62 Z M-222 60 C-222.33 60.66 -222.66 61.32 -223 62 C-221.35 62 -219.7 62 -218 62 C-219.32 61.34 -220.64 60.68 -222 60 Z M-210 60 C-210.33 61.32 -210.66 62.64 -211 64 C-210.34 64 -209.68 64 -209 64 C-209.33 62.68 -209.66 61.36 -210 60 Z M-205 60 C-205.33 60.99 -205.66 61.98 -206 63 C-205.01 63.495 -205.01 63.495 -204 64 C-204.33 62.68 -204.66 61.36 -205 60 Z M-244 64 C-244 64.66 -244 65.32 -244 66 C-243.34 65.67 -242.68 65.34 -242 65 C-242.66 64.67 -243.32 64.34 -244 64 Z M-237 66 C-237 66.33 -237 66.66 -237 67 C-228.42 67 -219.84 67 -211 67 C-211 66.67 -211 66.34 -211 66 C-219.58 66 -228.16 66 -237 66 Z M-31 66 C-31 66.66 -31 67.32 -31 68 C-29.87980469 68.13277344 -28.75960938 68.26554687 -27.60546875 68.40234375 C-26.13279271 68.58056569 -24.66013753 68.75896011 -23.1875 68.9375 C-22.44951172 69.02451172 -21.71152344 69.11152344 -20.95117188 69.20117188 C-17.83266879 69.58216546 -14.98891878 70.00369374 -12 71 C-12.85549438 71.03758423 -12.85549438 71.03758423 -13.72827148 71.07592773 C-16.29826157 71.19156549 -18.86785527 71.31443624 -21.4375 71.4375 C-22.33533203 71.47681641 -23.23316406 71.51613281 -24.15820312 71.55664062 C-25.01220703 71.59853516 -25.86621094 71.64042969 -26.74609375 71.68359375 C-27.53685303 71.72025146 -28.3276123 71.75690918 -29.14233398 71.79467773 C-31.01401441 71.80563257 -31.01401441 71.80563257 -32 73 C-32.09293923 74.4270022 -32.11746565 75.85855413 -32.11352539 77.28857422 C-32.11344986 78.1997702 -32.11337433 79.11096619 -32.11329651 80.04977417 C-32.10813522 81.04139557 -32.10297394 82.03301697 -32.09765625 83.0546875 C-32.0962413 84.0671756 -32.09482635 85.0796637 -32.09336853 86.12283325 C-32.08775132 89.37358499 -32.07520379 92.62426896 -32.0625 95.875 C-32.05748653 98.06119692 -32.05292336 100.24739492 -32.04882812 102.43359375 C-32.0389702 107.25562472 -32.02474031 112.07762056 -32.00672913 116.89962769 C-32.00128233 118.59974454 -32 120.29987442 -32 122 C-31.67 122.99 -31.34 123.98 -31 125 C-7.65955483 125.71887348 15.64799531 126.15874088 39 126 C40.63433374 118.52876007 41.14607914 111.30364084 41.09765625 103.6875 C41.0962413 102.83317383 41.09482635 101.97884766 41.09336853 101.09863281 C41.08781962 98.39905127 41.07527697 95.69955601 41.0625 93 C41.05747839 91.15755329 41.05291664 89.31510527 41.04882812 87.47265625 C41.03786699 82.98173814 41.02063825 78.49088364 41 74 C37.46449375 72.82149792 34.34666349 72.70472805 30.625 72.5 C26.31897615 72.26219198 22.20585125 71.97432847 18 71 C18.65226562 71.01160156 19.30453125 71.02320312 19.9765625 71.03515625 C24.7761914 71.08470994 29.27784685 70.99413751 34 70 C34 70.66 34 71.32 34 72 C37.12197478 70.6910428 37.12197478 70.6910428 39 68 C33.47730818 66.38730184 27.71048421 66.61592973 22 66.4375 C20.70175293 66.3950415 19.40350586 66.35258301 18.06591797 66.30883789 C1.71481402 65.81153976 -14.64349038 65.9082364 -31 66 Z M-143 96 C-139 97 -139 97 -139 97 Z M-157 99 C-156 101 -156 101 -156 101 Z M-151 99 C-151.33 99.66 -151.66 100.32 -152 101 C-151.34 101.66 -150.68 102.32 -150 103 C-150 102.34 -150 101.68 -150 101 C-149.01 101 -148.02 101 -147 101 C-147 100.34 -147 99.68 -147 99 C-148.32 99 -149.64 99 -151 99 Z M-121 99 C-121.33 100.32 -121.66 101.64 -122 103 C-120.02 103 -118.04 103 -116 103 C-116.33 102.01 -116.66 101.02 -117 100 C-119.01508358 99.26676204 -119.01508358 99.26676204 -121 99 Z M-101 99 C-101.33 99.99 -101.66 100.98 -102 102 C-100.68 102.33 -99.36 102.66 -98 103 C-97.67 102.34 -97.34 101.68 -97 101 C-97.66 101 -98.32 101 -99 101 C-99 100.34 -99 99.68 -99 99 C-99.66 99 -100.32 99 -101 99 Z M-67 99 C-66 102 -66 102 -66 102 Z M-140 100 C-139.67 100.99 -139.34 101.98 -139 103 C-137.35 102.67 -135.7 102.34 -134 102 C-134.33 101.34 -134.66 100.68 -135 100 C-136.65 100 -138.3 100 -140 100 Z M-131 101 C-131.33 101.66 -131.66 102.32 -132 103 C-129.03 103 -126.06 103 -123 103 C-123.66 101.68 -124.32 100.36 -125 99 C-127.14688822 99 -129.08340336 100.13753151 -131 101 Z M-111 100 C-111.33 100.99 -111.66 101.98 -112 103 C-110.02 103 -108.04 103 -106 103 C-106.33 102.01 -106.66 101.02 -107 100 C-108.32 100 -109.64 100 -111 100 Z M-84 100 C-83 103 -83 103 -83 103 Z M-78 100 C-78.33 100.99 -78.66 101.98 -79 103 C-77.35 103 -75.7 103 -74 103 C-74 102.34 -74 101.68 -74 101 C-75.32 100.67 -76.64 100.34 -78 100 Z M-149 105 C-147.54324986 108.46713681 -147.54324986 108.46713681 -138 111 C-138.33 127.5 -138.66 144 -139 161 C-138.01 161.33 -137.02 161.66 -136 162 C-135.67 161.01 -135.34 160.02 -135 159 C-133.68 159.33 -132.36 159.66 -131 160 C-131.66 160.66 -132.32 161.32 -133 162 C-125.14084419 162.82564109 -117.33659589 163.20812649 -109.4375 163.3515625 C-108.28378906 163.37471527 -107.13007813 163.39786804 -105.94140625 163.42172241 C-103.52461487 163.46900728 -101.10778335 163.51427984 -98.69091797 163.55761719 C-94.98257985 163.62531803 -91.27453396 163.70294718 -87.56640625 163.78125 C-85.2109488 163.82611795 -82.85548028 163.87040953 -80.5 163.9140625 C-78.83602173 163.94990952 -78.83602173 163.94990952 -77.13842773 163.98648071 C-75.60037476 164.0117836 -75.60037476 164.0117836 -74.03125 164.03759766 C-73.12955078 164.05456696 -72.22785156 164.07153625 -71.29882812 164.08901978 C-68.83709751 164.10085564 -68.83709751 164.10085564 -66 163 C-66.33 162.34 -66.66 161.68 -67 161 C-68.485 160.505 -68.485 160.505 -70 160 C-68.68 159.67 -67.36 159.34 -66 159 C-65.94583812 157.39620659 -65.90713362 155.79188594 -65.875 154.1875 C-65.85179687 153.29417969 -65.82859375 152.40085938 -65.8046875 151.48046875 C-65.81714173 148.74597286 -65.81714173 148.74597286 -68 146 C-70.66389234 145.62484152 -73.10646173 145.43924157 -75.78125 145.3828125 C-76.55053833 145.35774628 -77.31982666 145.33268005 -78.11242676 145.30685425 C-79.73962513 145.2578584 -81.36706242 145.21631752 -82.99462891 145.18164062 C-85.49111069 145.12520097 -87.98505668 145.03687822 -90.48046875 144.9453125 C-92.05984389 144.9017213 -93.63927174 144.85999175 -95.21875 144.8203125 C-96.34222839 144.77839279 -96.34222839 144.77839279 -97.48840332 144.73562622 C-99.81262061 144.66456133 -99.81262061 144.66456133 -103 145 C-103.66 145.99 -104.32 146.98 -105 148 C-105 147.34 -105 146.68 -105 146 C-113.34332544 144.80809637 -121.59323022 144.90716451 -130 145 C-129.67 142.03 -129.34 139.06 -129 136 C-98.805 136.495 -98.805 136.495 -68 137 C-68 136.34 -68 135.68 -68 135 C-67.34 135 -66.68 135 -66 135 C-66 132.03 -66 129.06 -66 126 C-68.64 126 -71.28 126 -74 126 C-74.495 124.515 -74.495 124.515 -75 123 C-75.804375 123.185625 -76.60875 123.37125 -77.4375 123.5625 C-78.283125 123.706875 -79.12875 123.85125 -80 124 C-80.33 123.67 -80.66 123.34 -81 123 C-82.48002421 122.92511894 -83.96353997 122.91678798 -85.4453125 122.9375 C-86.35796875 122.94523437 -87.270625 122.95296875 -88.2109375 122.9609375 C-90.13021257 122.98666505 -92.04948356 123.01269895 -93.96875 123.0390625 C-98.03803787 123.0732582 -101.96911584 123.0977832 -105.9921875 122.4375 C-109.04097637 121.76394321 -109.04097637 121.76394321 -112 123 C-112.99 122.67 -113.98 122.34 -115 122 C-115.495 122.495 -115.495 122.495 -116 123 C-123.29411765 123.23529412 -123.29411765 123.23529412 -127 122 C-127 122.66 -127 123.32 -127 124 C-128.98 124 -130.96 124 -133 124 C-133 119.71 -133 115.42 -133 111 C-131.43121094 111.08378906 -129.86242187 111.16757813 -128.24609375 111.25390625 C-107.45677286 112.23735505 -86.78936261 111.7138048 -66 111 C-66.99 108.525 -66.99 108.525 -68 106 C-75.35670406 105.85400897 -82.71347993 105.71211659 -90.0703125 105.57275391 C-92.56023853 105.5251411 -95.05014837 105.47667238 -97.54003906 105.42724609 C-114.69559221 105.08746351 -131.84107362 104.92925613 -149 105 Z M-132 113 C-132 115.97 -132 118.94 -132 122 C-131.01 122.33 -130.02 122.66 -129 123 C-129.185625 121.906875 -129.37125 120.81375 -129.5625 119.6875 C-130 116 -130 116 -129 113 C-129.99 113 -130.98 113 -132 113 Z M-121 118 C-121 118.66 -121 119.32 -121 120 C-120.01 120 -119.02 120 -118 120 C-118 119.34 -118 118.68 -118 118 C-118.99 118 -119.98 118 -121 118 Z M-113 118 C-113.33 118.66 -113.66 119.32 -114 120 C-112.68 120 -111.36 120 -110 120 C-110 119.34 -110 118.68 -110 118 C-110.99 118 -111.98 118 -113 118 Z M-106 118 C-106 118.66 -106 119.32 -106 120 C-104.68 120 -103.36 120 -102 120 C-102 119.34 -102 118.68 -102 118 C-103.32 118 -104.64 118 -106 118 Z M-97 118 C-97.33 118.66 -97.66 119.32 -98 120 C-96.68 119.67 -95.36 119.34 -94 119 C-94.99 118.67 -95.98 118.34 -97 118 Z M-89 118 C-89 118.66 -89 119.32 -89 120 C-88.01 120 -87.02 120 -86 120 C-86 119.34 -86 118.68 -86 118 C-86.99 118 -87.98 118 -89 118 Z M-79 118 C-79.66 118.66 -80.32 119.32 -81 120 C-79.68 120.33 -78.36 120.66 -77 121 C-77 120.01 -77 119.02 -77 118 C-77.66 118 -78.32 118 -79 118 Z M-72 119 C-72 119.66 -72 120.32 -72 121 C-71.01 120.67 -70.02 120.34 -69 120 C-69.99 119.67 -70.98 119.34 -72 119 Z M-30 128 C-30 131.63 -30 135.26 -30 139 C-29.67 139 -29.34 139 -29 139 C-29 135.37 -29 131.74 -29 128 C-29.33 128 -29.66 128 -30 128 Z M-27 128 C-27 131.96 -27 135.92 -27 140 C-25.68 139.67 -24.36 139.34 -23 139 C-23 135.7 -23 132.4 -23 129 C-24.32 128.67 -25.64 128.34 -27 128 Z M-19 128 C-20.25949049 129.03406673 -20.25949049 129.03406673 -20.09765625 131.28515625 C-20.08605469 132.20167969 -20.07445312 133.11820313 -20.0625 134.0625 C-20.05347656 134.98160156 -20.04445313 135.90070313 -20.03515625 136.84765625 C-20.02355469 137.55792969 -20.01195312 138.26820313 -20 139 C-19.34 139 -18.68 139 -18 139 C-18 135.37 -18 131.74 -18 128 C-18.33 128 -18.66 128 -19 128 Z M-15 128 C-15.76173392 132.3164922 -16.16063604 135.74433453 -15 140 C-13.02463255 139.65213292 -13.02463255 139.65213292 -11 139 C-9.61449803 136.22899606 -9.8122533 134.0665294 -10 131 C-10.66 130.01 -11.32 129.02 -12 128 C-12.99 128 -13.98 128 -15 128 Z M-8 128 C-8 132.29 -8 136.58 -8 141 C-7.01 141 -6.02 141 -5 141 C-5 136.71 -5 132.42 -5 128 C-5.99 128 -6.98 128 -8 128 Z M-3 128 C-3 132.29 -3 136.58 -3 141 C-2.01 141 -1.02 141 0 141 C0 137.04 0 133.08 0 129 C-0.99 128.67 -1.98 128.34 -3 128 Z M4 128 C3.90492937 134.43311296 3.84683274 140.65758005 5 147 C7.64 147 10.28 147 13 147 C12.67 146.01 12.34 145.02 12 144 C10.68 143.67 9.36 143.34 8 143 C8 138.05 8 133.1 8 128 C6.68 128 5.36 128 4 128 Z M10 128 C10 131.96 10 135.92 10 140 C11.32 140 12.64 140 14 140 C14 136.04 14 132.08 14 128 C12.68 128 11.36 128 10 128 Z M24 128 C23.08702692 132.97063121 23.08702692 137.02936879 24 142 C24.99 142 25.98 142 27 142 C27.33 142.66 27.66 143.32 28 144 C28.66 144 29.32 144 30 144 C30.33 143.01 30.66 142.02 31 141 C31.66 143.31 32.32 145.62 33 148 C36.465 147.505 36.465 147.505 40 147 C39.67 145.68 39.34 144.36 39 143 C37.02 143 35.04 143 33 143 C33.99 141.02 34.98 139.04 36 137 C36.66 138.32 37.32 139.64 38 141 C38.99 140.67 39.98 140.34 41 140 C41 136.37 41 132.74 41 129 C39.68 129.33 38.36 129.66 37 130 C34.55950068 130 32.39299207 129.48947565 30 129 C28.00102872 128.66055205 26.00124361 128.32578384 24 128 Z M2 129 C0.06658053 130.93341947 0.82550867 134.37479121 0.8125 136.9375 C0.79832031 138.20464844 0.78414063 139.47179687 0.76953125 140.77734375 C0.65286303 144.08943999 0.65286303 144.08943999 3 146 C3 140.39 3 134.78 3 129 C2.67 129 2.34 129 2 129 Z M20 128 C18.35 128.66 16.7 129.32 15 130 C15 134.62 15 139.24 15 144 C15.99 143.01 16.98 142.02 18 141 C18.66 141 19.32 141 20 141 C19.67 142.98 19.34 144.96 19 147 C21.90073181 147.67801034 21.90073181 147.67801034 25 148 C25.66 147.34 26.32 146.68 27 146 C25.02 145.34 23.04 144.68 21 144 C21.14308594 142.51886719 21.14308594 142.51886719 21.2890625 141.0078125 C21.45535156 139.08582031 21.45535156 139.08582031 21.625 137.125 C21.74101562 135.84882813 21.85703125 134.57265625 21.9765625 133.2578125 C21.98429687 132.18273437 21.99203125 131.10765625 22 130 C21.34 129.34 20.68 128.68 20 128 Z M-87 137 C-87.33 137.99 -87.66 138.98 -88 140 C-87.34 140 -86.68 140 -86 140 C-86.33 139.01 -86.66 138.02 -87 137 Z M-121 138 C-120 140 -120 140 -120 140 Z M-109 138 C-108 140 -108 140 -108 140 Z M-103 138 C-103 139.98 -103 141.96 -103 144 C-102.34 144 -101.68 144 -101 144 C-101 142.02 -101 140.04 -101 138 C-101.66 138 -102.32 138 -103 138 Z M-96 138 C-96 138.66 -96 139.32 -96 140 C-95.34 140 -94.68 140 -94 140 C-94 139.34 -94 138.68 -94 138 C-94.66 138 -95.32 138 -96 138 Z M-81 138 C-80.67 138.99 -80.34 139.98 -80 141 C-79.34 141 -78.68 141 -78 141 C-78.33 140.01 -78.66 139.02 -79 138 C-79.66 138 -80.32 138 -81 138 Z M-127 140 C-126 142 -126 142 -126 142 Z M-67 140 C-67 141.65 -67 143.3 -67 145 C-66.67 145 -66.34 145 -66 145 C-66 143.35 -66 141.7 -66 140 C-66.33 140 -66.66 140 -67 140 Z M-88 142 C-88 142.66 -88 143.32 -88 144 C-87.34 144 -86.68 144 -86 144 C-86 143.34 -86 142.68 -86 142 C-86.66 142 -87.32 142 -88 142 Z M-80 142 C-80.33 142.66 -80.66 143.32 -81 144 C-80.01 144 -79.02 144 -78 144 C-78 143.34 -78 142.68 -78 142 C-78.66 142 -79.32 142 -80 142 Z M-73 142 C-72 144 -72 144 -72 144 Z M-32 144 C-31.67 144.99 -31.34 145.98 -31 147 C-29.02 147 -27.04 147 -25 147 C-25 146.01 -25 145.02 -25 144 C-27.31 144 -29.62 144 -32 144 Z M-20 144 C-20 144.99 -20 145.98 -20 147 C-17.69 147 -15.38 147 -13 147 C-13 146.01 -13 145.02 -13 144 C-15.31 144 -17.62 144 -20 144 Z M-7 144 C-7.33 144.99 -7.66 145.98 -8 147 C-5.69 147 -3.38 147 -1 147 C-1.33 146.01 -1.66 145.02 -2 144 C-3.65 144 -5.3 144 -7 144 Z M-33 149 C-33 150.98 -33 152.96 -33 155 C-28.34245771 155.7456416 -23.87761724 156.12614367 -19.16259766 156.12939453 C-17.84498444 156.13254669 -16.52737122 156.13569885 -15.16983032 156.13894653 C-13.7512407 156.13715755 -12.33265139 156.1351068 -10.9140625 156.1328125 C-9.44672632 156.13348677 -7.97939024 156.13445783 -6.51205444 156.13571167 C-3.45089647 156.13718004 -0.38976783 156.13506 2.67138672 156.13037109 C6.60246775 156.12464393 10.53348095 156.12797699 14.46455956 156.13394356 C17.48760495 156.13754668 20.51063409 156.13641227 23.53367996 156.13381577 C24.98421868 156.13314737 26.43475886 156.13397189 27.88529587 156.13629532 C29.90318526 156.13882096 31.92107982 156.13429227 33.93896484 156.12939453 C35.08811371 156.12859894 36.23726257 156.12780334 37.42123413 156.12698364 C39.93113831 156.2926863 39.93113831 156.2926863 41 155 C41.04063832 153.33382885 41.042721 151.66611905 41 150 C36.63466556 149.16188173 32.5189243 148.87821761 28.07666016 148.88647461 C27.08048172 148.88625557 27.08048172 148.88625557 26.06417847 148.8860321 C23.88910551 148.88672366 21.71412032 148.89448027 19.5390625 148.90234375 C18.02306159 148.90421062 16.50706008 148.90563325 14.99105835 148.90663147 C11.01595369 148.91043544 7.04088602 148.92024747 3.0657959 148.93133545 C-0.99649556 148.9415953 -5.05879304 148.94613886 -9.12109375 148.95117188 C-17.08074607 148.96187178 -25.04036842 148.97892254 -33 149 Z M-9 158 C-9 158.33 -9 158.66 -9 159 C-6.03 159 -3.06 159 0 159 C0 158.67 0 158.34 0 158 C-2.97 158 -5.94 158 -9 158 Z M3 158 C7 159 7 159 7 159 Z M12 157 C11.34 157.66 10.68 158.32 10 159 C11.32 158.67 12.64 158.34 14 158 C13.34 157.67 12.68 157.34 12 157 Z M19 157 C17.02 157.99 17.02 157.99 15 159 C16.98 159 18.96 159 21 159 C20.34 158.34 19.68 157.68 19 157 Z M27 158 C27 158.33 27 158.66 27 159 C29.31 159 31.62 159 34 159 C34 158.67 34 158.34 34 158 C31.69 158 29.38 158 27 158 Z M-24 160 C-24 160.99 -24 161.98 -24 163 C-23.34 162.34 -22.68 161.68 -22 161 C-22.66 160.67 -23.32 160.34 -24 160 Z M-19 160 C-19 160.99 -19 161.98 -19 163 C-18.34 163 -17.68 163 -17 163 C-17 162.01 -17 161.02 -17 160 C-17.66 160 -18.32 160 -19 160 Z M-13 160 C-13.33 160.99 -13.66 161.98 -14 163 C-13.01 163 -12.02 163 -11 163 C-11.33 162.01 -11.66 161.02 -12 160 C-12.33 160 -12.66 160 -13 160 Z M-7 160 C-7.33 160.99 -7.66 161.98 -8 163 C-7.01 163 -6.02 163 -5 163 C-5 162.01 -5 161.02 -5 160 C-5.66 160 -6.32 160 -7 160 Z M11 160 C11 161.32 11 162.64 11 164 C11.66 163.67 12.32 163.34 13 163 C12.67 162.01 12.34 161.02 12 160 C11.67 160 11.34 160 11 160 Z M16 160 C15.67 160.99 15.34 161.98 15 163 C15.99 163.33 16.98 163.66 18 164 C18.66 163.34 19.32 162.68 20 162 C18.68 161.34 17.36 160.68 16 160 Z M35 160 C35 160.66 35 161.32 35 162 C34.01 162.495 34.01 162.495 33 163 C34.32 163.33 35.64 163.66 37 164 C37.33 163.34 37.66 162.68 38 162 C37.34 162 36.68 162 36 162 C35.67 161.34 35.34 160.68 35 160 Z M-33 162 C-31.35 162 -29.7 162 -28 162 C-28 161.34 -28 160.68 -28 160 C-30.32357511 159.81509993 -30.32357511 159.81509993 -33 162 Z M-2 161 C-2.33 161.66 -2.66 162.32 -3 163 C-1.68 163 -0.36 163 1 163 C1 162.34 1 161.68 1 161 C0.01 161 -0.98 161 -2 161 Z M3 161 C3 161.66 3 162.32 3 163 C3.99 163.33 4.98 163.66 6 164 C6.33 163.01 6.66 162.02 7 161 C5.68 161 4.36 161 3 161 Z M23 161 C23 161.99 23 162.98 23 164 C23.66 163.34 24.32 162.68 25 162 C24.34 161.67 23.68 161.34 23 161 Z M29 161 C28.34 161.66 27.68 162.32 27 163 C28.32 163.33 29.64 163.66 31 164 C31.33 163.34 31.66 162.68 32 162 C31.01 161.67 30.02 161.34 29 161 Z M-140 216 C-141.17566272 221.5843979 -141 225.98669057 -141 232 C-134.07 232 -127.14 232 -120 232 C-127.375 232.875 -127.375 232.875 -129.69287109 233.13623047 C-133.78583456 233.58458962 -133.78583456 233.58458962 -137 236 C-137.32027305 239.05819227 -137.32027305 239.05819227 -137.25 242.5 C-137.25515625 243.6653125 -137.2603125 244.830625 -137.265625 246.03125 C-137.30925773 249.11826065 -137.30925773 249.11826065 -135 251 C-136.485 251.495 -136.485 251.495 -138 252 C-138 246.06 -138 240.12 -138 234 C-138.99 234 -139.98 234 -141 234 C-142.03387512 242.0125322 -142.10466648 249.92905177 -142 258 C-134.68266455 258.95149063 -127.46408338 259.20985147 -120.08984375 259.31640625 C-118.88179581 259.33718735 -117.67374786 259.35796844 -116.42909241 259.37937927 C-112.59861527 259.44437039 -108.76807399 259.50352365 -104.9375 259.5625 C-102.32876961 259.60573326 -99.72004552 259.64934903 -97.11132812 259.69335938 C-90.74095175 259.79999958 -84.37051263 259.90185639 -78 260 C-76.52952664 256.08936776 -76.52952664 256.08936776 -76 252 C-75.67 251.67 -75.34 251.34 -75 251 C-74.8046875 253.05078125 -74.609375 255.1015625 -74.4140625 257.15234375 C-74.20910156 258.06693359 -74.20910156 258.06693359 -74 259 C-73.34 259.33 -72.68 259.66 -72 260 C-69.58878141 258.04366025 -69.58878141 258.04366025 -69.875 254.375 C-69.91625 253.26125 -69.9575 252.1475 -70 251 C-68.515 251.495 -68.515 251.495 -67 252 C-67 252.99 -67 253.98 -67 255 C-62.2102679 255.23428313 -62.2102679 255.23428313 -58 253 C-57.7834375 254.4540625 -57.7834375 254.4540625 -57.5625 255.9375 C-57.32437659 258.86486773 -57.32437659 258.86486773 -56 260 C-53 260.16666667 -53 260.16666667 -50 260 C-48.28432208 258.28432208 -48.86984175 256.02627265 -48.8671875 253.6875 C-48.86589844 252.61242187 -48.86460937 251.53734375 -48.86328125 250.4296875 C-48.86714844 249.29789063 -48.87101562 248.16609375 -48.875 247 C-48.87113281 245.86820313 -48.86726563 244.73640625 -48.86328125 243.5703125 C-48.86457031 242.49523437 -48.86585938 241.42015625 -48.8671875 240.3125 C-48.86887939 238.82169922 -48.86887939 238.82169922 -48.87060547 237.30078125 C-48.7416567 235.03624774 -48.7416567 235.03624774 -50 234 C-52.80511953 233.84645662 -55.56863671 233.76834224 -58.375 233.75 C-59.15617187 233.729375 -59.93734375 233.70875 -60.7421875 233.6875 C-65.09211924 233.51099271 -65.09211924 233.51099271 -68.74853516 235.52050781 C-69.16151855 236.00874023 -69.57450195 236.49697266 -70 237 C-73 236 -76 235 -79 234 C-81.22818441 233.93062938 -83.45834524 233.91542916 -85.6875 233.9375 C-86.86699219 233.94652344 -88.04648438 233.95554687 -89.26171875 233.96484375 C-90.16535156 233.97644531 -91.06898438 233.98804688 -92 234 C-92 233.34 -92 232.68 -92 232 C-91.19175781 232.08378906 -90.38351563 232.16757812 -89.55078125 232.25390625 C-88.48214844 232.35574219 -87.41351563 232.45757812 -86.3125 232.5625 C-85.25675781 232.66691406 -84.20101562 232.77132812 -83.11328125 232.87890625 C-80.18573914 232.99277552 -77.82868856 232.70848415 -75 232 C-75.350625 231.46375 -75.70125 230.9275 -76.0625 230.375 C-77.29470823 227.25340583 -76.59968442 225.26494851 -76 222 C-76.28927464 220.32512416 -76.6161756 218.65576802 -77 217 C-84.28421548 216.97687084 -91.5684231 216.95908199 -98.85266781 216.94818783 C-102.23471813 216.94296025 -105.6167434 216.93586489 -108.9987793 216.92456055 C-112.88329777 216.91165733 -116.76780597 216.90677076 -120.65234375 216.90234375 C-122.48199928 216.89460182 -122.48199928 216.89460182 -124.34861755 216.88670349 C-125.46970413 216.88662796 -126.59079071 216.88655243 -127.74584961 216.88647461 C-128.73846298 216.884254 -129.73107635 216.88203339 -130.75376892 216.87974548 C-132.97026525 216.74750058 -132.97026525 216.74750058 -134 218 C-134.04246643 220.67538514 -134.04919459 223.32709386 -134 226 C-134 226.66 -134 227.32 -134 228 C-134.99 228.66 -135.98 229.32 -137 230 C-137 225.38 -137 220.76 -137 216 C-137.99 216 -138.98 216 -140 216 Z M-73 217 C-74.41774838 218.18852855 -74.41774838 218.18852855 -74.09765625 221.59765625 C-74.0909822 223.08596867 -74.07902183 224.57426432 -74.0625 226.0625 C-74.05798828 226.82111328 -74.05347656 227.57972656 -74.04882812 228.36132812 C-74.0370068 230.24091871 -74.01907078 232.12046899 -74 234 C-72.35 234 -70.7 234 -69 234 C-69 228.72 -69 223.44 -69 218 C-70.32 217.67 -71.64 217.34 -73 217 Z M-67 218 C-67.0731176 219.76944583 -67.08360923 221.54166993 -67.0625 223.3125 C-67.05347656 224.27800781 -67.04445313 225.24351562 -67.03515625 226.23828125 C-67.02355469 227.14964844 -67.01195312 228.06101562 -67 229 C-67 230.32 -67 231.64 -67 233 C-64.20826945 233.02690104 -61.41679652 233.04679053 -58.625 233.0625 C-57.43390625 233.07506836 -57.43390625 233.07506836 -56.21875 233.08789062 C-51.97607778 233.23040151 -51.97607778 233.23040151 -48 232 C-48.350625 231.38125 -48.70125 230.7625 -49.0625 230.125 C-49.5265625 229.073125 -49.5265625 229.073125 -50 228 C-49.67 227.34 -49.34 226.68 -49 226 C-48.9310528 224.62657169 -48.91532292 223.24997898 -48.9375 221.875 C-48.958125 220.59625 -48.97875 219.3175 -49 218 C-50.89559964 217.83069605 -52.79149231 217.66467136 -54.6875 217.5 C-55.74324219 217.4071875 -56.79898438 217.314375 -57.88671875 217.21875 C-62.77189371 216.45604231 -62.77189371 216.45604231 -67 218 Z M-265 218 C-265.04254356 219.99954746 -265.04080783 222.00041636 -265 224 C-263.92970871 225.29545448 -263.92970871 225.29545448 -261.40795898 225.11352539 C-260.28204346 225.10828857 -259.15612793 225.10305176 -257.99609375 225.09765625 C-256.17368164 225.09282227 -256.17368164 225.09282227 -254.31445312 225.08789062 C-253.03505859 225.07951172 -251.75566406 225.07113281 -250.4375 225.0625 C-248.51260742 225.05573242 -248.51260742 225.05573242 -246.54882812 225.04882812 C-243.36583978 225.03699545 -240.18294238 225.02051068 -237 225 C-236.01 223.02 -235.02 221.04 -234 219 C-235.10267706 217.67112965 -235.10267706 217.67112965 -237.86743164 217.88647461 C-239.11903076 217.89171143 -240.37062988 217.89694824 -241.66015625 217.90234375 C-242.32462265 217.9037587 -242.98908905 217.90517365 -243.6736908 217.90663147 C-245.80333899 217.91224482 -247.93288339 217.92479946 -250.0625 217.9375 C-251.50325369 217.94251329 -252.94400903 217.94707649 -254.38476562 217.95117188 C-257.92321102 217.96221855 -261.46159539 217.97949208 -265 218 Z M-45 217 C-45.99 217.495 -45.99 217.495 -47 218 C-47 231.53 -47 245.06 -47 259 C-46.34 259.33 -45.68 259.66 -45 260 C-44.97494385 259.2479126 -44.9498877 258.4958252 -44.92407227 257.72094727 C-44.80849486 254.33460804 -44.68559655 250.94857387 -44.5625 247.5625 C-44.52318359 246.37849609 -44.48386719 245.19449219 -44.44335938 243.97460938 C-44.38051758 242.28754883 -44.38051758 242.28754883 -44.31640625 240.56640625 C-44.27974854 239.52427979 -44.24309082 238.48215332 -44.20532227 237.40844727 C-44 235 -44 235 -43 234 C-42.92680379 231.30345146 -42.90757463 228.63308542 -42.9375 225.9375 C-42.94201172 225.17888672 -42.94652344 224.42027344 -42.95117188 223.63867188 C-42.9629932 221.75908129 -42.98092922 219.87953101 -43 218 C-43.66 217.67 -44.32 217.34 -45 217 Z M-41 218 C-41.020625 219.299375 -41.04125 220.59875 -41.0625 221.9375 C-41.07410156 222.66839844 -41.08570313 223.39929688 -41.09765625 224.15234375 C-41.20561184 226.01732141 -41.20561184 226.01732141 -40 227 C-34.89651948 227.920085 -29.86582384 228.16998686 -24.69384766 228.22119141 C-23.49503464 228.23845024 -23.49503464 228.23845024 -22.27200317 228.25605774 C-19.65272734 228.29249248 -17.03342737 228.32228442 -14.4140625 228.3515625 C-12.5879993 228.37469591 -10.76193933 228.39808638 -8.93588257 228.42172241 C-5.12150982 228.47002294 -1.30711595 228.51498401 2.50732422 228.55761719 C7.40702808 228.61268496 12.30657357 228.67648846 17.2061367 228.74279213 C20.9703064 228.79272154 24.73452151 228.83790154 28.49876785 228.88163376 C30.30658467 228.90324938 32.11438373 228.9264041 33.9221611 228.9510994 C36.43815162 228.98479455 38.95413004 229.01207216 41.47021484 229.03759766 C42.22238281 229.04897263 42.97455078 229.0603476 43.74951172 229.07206726 C45.49978032 229.08644087 47.25035514 229.04888381 49 229 C50.23267348 227.99163938 50.23267348 227.99163938 50.09765625 225.93359375 C50.08605469 225.10988281 50.07445312 224.28617188 50.0625 223.4375 C50.05347656 222.61121094 50.04445313 221.78492188 50.03515625 220.93359375 C50.02355469 220.29550781 50.01195312 219.65742188 50 219 C29.02462547 217.98314327 8.0568843 217.91130613 -12.9375 217.9375 C-13.62843246 217.93835602 -14.31936493 217.93921204 -15.03123474 217.94009399 C-23.68751319 217.95160425 -32.34375959 217.97184994 -41 218 Z M-198 220 C-198 220.99 -198 221.98 -198 223 C-197.34 223 -196.68 223 -196 223 C-196 222.01 -196 221.02 -196 220 C-196.66 220 -197.32 220 -198 220 Z M-195 220 C-194 223 -194 223 -194 223 Z M-272 224 C-272.17244828 226.83307893 -272.33795033 229.6663207 -272.5 232.5 C-272.54769531 233.27214844 -272.59539062 234.04429687 -272.64453125 234.83984375 C-273.09549416 242.89275283 -273.04526525 250.93775629 -273 259 C-267.46411467 259.02464775 -261.928261 259.04283496 -256.39233398 259.05493164 C-254.5075627 259.05997244 -252.62279535 259.06680498 -250.73803711 259.07543945 C-248.03498364 259.08751617 -245.33198169 259.09323068 -242.62890625 259.09765625 C-241.35703209 259.10539818 -241.35703209 259.10539818 -240.0594635 259.11329651 C-238.03928932 259.11349195 -236.01922066 259.06206211 -234 259 C-232.22669276 257.22669276 -232.63893025 254.61763831 -232.46484375 252.20703125 C-232.37783203 251.01916016 -232.29082031 249.83128906 -232.20117188 248.60742188 C-232.11416016 247.35509766 -232.02714844 246.10277344 -231.9375 244.8125 C-231.84662109 243.57951172 -231.75574219 242.34652344 -231.66210938 241.07617188 C-231.27645006 235.70303876 -230.94780415 230.38934778 -231 225 C-232.32 225 -233.64 225 -235 225 C-235 230.61 -235 236.22 -235 242 C-235.99 242.495 -235.99 242.495 -237 243 C-237 245.31 -237 247.62 -237 250 C-247.23 250 -257.46 250 -268 250 C-268.14285714 233 -268.14285714 233 -267 225 C-268.65 224.67 -270.3 224.34 -272 224 Z M-260 228 C-260 228.66 -260 229.32 -260 230 C-259.34 230 -258.68 230 -258 230 C-258 229.34 -258 228.68 -258 228 C-258.66 228 -259.32 228 -260 228 Z M-255 228 C-254 230 -254 230 -254 230 Z M-265 235 C-265 235.33 -265 235.66 -265 236 C-261.50007304 236.79706768 -258.2857769 237.11863027 -254.69921875 237.09765625 C-253.72275391 237.09443359 -252.74628906 237.09121094 -251.74023438 237.08789062 C-250.22913086 237.07532227 -250.22913086 237.07532227 -248.6875 237.0625 C-247.66076172 237.05798828 -246.63402344 237.05347656 -245.57617188 237.04882812 C-243.05072118 237.03708184 -240.52539095 237.02065565 -238 237 C-238 236.34 -238 235.68 -238 235 C-246.91 235 -255.82 235 -265 235 Z M71 260 C71 260.66 71 261.32 71 262 C72.32 262 73.64 262 75 262 C74.67 261.01 74.34 260.02 74 259 C72.7763932 258.9254644 72.7763932 258.9254644 71 260 Z M-297 262 C-297.04092937 264.33297433 -297.04241723 266.66705225 -297 269 C-263.97199252 269.69782178 -230.97074212 270.22041399 -197.9375 269.625 C-196.03849945 269.59286911 -196.03849945 269.59286911 -194.10113525 269.56008911 C-190.55551752 269.49769055 -187.01020697 269.42694297 -183.46484375 269.3515625 C-182.41073807 269.33166763 -181.35663239 269.31177277 -180.27058411 269.29127502 C-178.8448835 269.25658363 -178.8448835 269.25658363 -177.39038086 269.22119141 C-176.1467704 269.19335068 -176.1467704 269.19335068 -174.8780365 269.16494751 C-172.98738238 269.20155847 -172.98738238 269.20155847 -172 268 C-171.95919217 266.00041636 -171.95745644 263.99954746 -172 262 C-196.12211965 260.905425 -220.22690683 260.84351716 -244.36938477 260.86962891 C-249.81427294 260.87543181 -255.25911295 260.87196409 -260.70399952 260.86605644 C-264.92539339 260.86246161 -269.14677558 260.86358258 -273.36816978 260.86618423 C-275.37971693 260.86685108 -277.39126514 260.86603354 -279.40281105 260.86370468 C-282.17978431 260.86118471 -284.9566755 260.86500444 -287.73364258 260.87060547 C-288.56188538 260.86858124 -289.39012817 260.86655701 -290.24346924 260.86447144 C-293.92287323 260.52732522 -293.92287323 260.52732522 -297 262 Z " fill="#000000" transform="translate(339,37)"/>
<path d="M0 0 C0.99 0.33 1.98 0.66 3 1 C2.95875 1.94875 2.9175 2.8975 2.875 3.875 C2.65026182 7.10244856 2.65026182 7.10244856 5 9 C7.89883083 9.24339551 7.89883083 9.24339551 11.125 9.125 C12.76855469 9.09792969 12.76855469 9.09792969 14.4453125 9.0703125 C15.28835938 9.04710938 16.13140625 9.02390625 17 9 C18.16580479 13.64828464 18.17243172 18.16116436 18.20532227 22.92114258 C18.21522186 23.80944763 18.22512146 24.69775269 18.23532104 25.61297607 C18.26683085 28.54013431 18.29165181 31.46730875 18.31640625 34.39453125 C18.33698486 36.42763178 18.35798157 38.46072812 18.37937927 40.49382019 C18.43450622 45.83833415 18.4839568 51.18288612 18.53222656 56.52746582 C18.58251012 61.98383965 18.63816038 67.44015845 18.69335938 72.89648438 C18.80082624 83.59760921 18.90229661 94.29878188 19 105 C18.01 104.67 17.02 104.34 16 104 C16.00523682 103.42629166 16.01047363 102.85258331 16.01586914 102.26148987 C16.16025467 83.56436359 15.67234274 64.90895186 15.07287598 46.22473145 C14.94937041 42.34847724 14.8303774 38.47208435 14.7109375 34.59570312 C14.47822666 27.06366429 14.24075242 19.53178656 14 12 C12.35 12 10.7 12 9 12 C8.97296619 13.93742341 8.95358875 15.87495479 8.9375 17.8125 C8.92009766 19.43091797 8.92009766 19.43091797 8.90234375 21.08203125 C8.86375234 24.06512169 8.86375234 24.06512169 10 27 C9.01 28.485 9.01 28.485 8 30 C7.92094936 32.33199388 7.91201231 34.66832622 8 37 C7.01 36.67 6.02 36.34 5 36 C5.33 35.34 5.66 34.68 6 34 C4.35 33.67 2.7 33.34 1 33 C2.32 32.01 3.64 31.02 5 30 C2.46061896 27.46061896 1.43269006 27.70490909 -2.09375 27.5859375 C-3.640625 27.52792969 -3.640625 27.52792969 -5.21875 27.46875 C-6.3015625 27.4378125 -7.384375 27.406875 -8.5 27.375 C-9.551875 27.33632812 -10.60375 27.29765625 -11.6875 27.2578125 C-18.12675017 27.03467017 -24.55723403 26.95140931 -31 27 C-31.85873526 23.73619482 -32.28187684 20.61747792 -32.5625 17.25 C-32.64628906 16.26515625 -32.73007812 15.2803125 -32.81640625 14.265625 C-32.87699219 13.51796875 -32.93757812 12.7703125 -33 12 C-34.65 12.33 -36.3 12.66 -38 13 C-37.67 23.23 -37.34 33.46 -37 44 C-37.66 44 -38.32 44 -39 44 C-39 43.34 -39 42.68 -39 42 C-39.56396484 42.34256836 -40.12792969 42.68513672 -40.70898438 43.03808594 C-43.304064 44.61192415 -45.902002 46.18098435 -48.5 47.75 C-49.386875 48.28882813 -50.27375 48.82765625 -51.1875 49.3828125 C-55.7355776 52.12503576 -60.28638107 54.68673064 -65.06152344 57.0078125 C-68.62786165 58.83320274 -71.99108579 60.98545199 -75.375 63.125 C-76.08527344 63.56714844 -76.79554688 64.00929688 -77.52734375 64.46484375 C-81.48567699 66.94448113 -81.48567699 66.94448113 -85 70 C-87.32275177 70.40047444 -89.65739357 70.7397104 -92 71 C-91.2236068 74.0745356 -91.2236068 74.0745356 -89 76 C-90.485 76.495 -90.485 76.495 -92 77 C-92 91.52 -92 106.04 -92 121 C-101.24 121 -110.48 121 -120 121 C-120 120.67 -120 120.34 -120 120 C-113.73 119.67 -107.46 119.34 -101 119 C-101.66 118.01 -102.32 117.02 -103 116 C-101.35 115.67 -99.7 115.34 -98 115 C-97.67 115.99 -97.34 116.98 -97 118 C-95.515 118.495 -95.515 118.495 -94 119 C-94.33 102.5 -94.66 86 -95 69 C-91.32636934 68.08159233 -87.74787912 67.50452219 -84 67 C-83.505 65.515 -83.505 65.515 -83 64 C-82.01 63.34 -81.02 62.68 -80 62 C-109.04 61.67 -138.08 61.34 -168 61 C-168.33 62.32 -168.66 63.64 -169 65 C-169.76397425 56.75999203 -170.1070242 48.584365 -170.125 40.3125 C-170.12951172 39.43948242 -170.13402344 38.56646484 -170.13867188 37.66699219 C-170.13673828 36.84489258 -170.13480469 36.02279297 -170.1328125 35.17578125 C-170.13168457 34.44270752 -170.13055664 33.70963379 -170.12939453 32.9543457 C-170 31 -170 31 -169 28 C-169.66 27.67 -170.32 27.34 -171 27 C-169.68 27 -168.36 27 -167 27 C-167 34.26 -167 41.52 -167 49 C-140.85259337 49.75202718 -114.69866403 50.22511145 -88.53991699 50.02365112 C-85.90153339 50.00796236 -83.26305026 50.00419937 -80.62463379 50.01272583 C-76.8957933 50.02143587 -73.16990114 49.98503145 -69.44140625 49.9375 C-67.79577446 49.95410927 -67.79577446 49.95410927 -66.11689758 49.97105408 C-57.74572203 49.78867314 -52.60049991 47.01093497 -46 42 C-45.24804855 41.48287445 -44.49609711 40.9657489 -43.72135925 40.43295288 C-41.73963009 39.08793575 -41.73963009 39.08793575 -41.48583984 36.44384766 C-41.47762207 35.44401855 -41.4694043 34.44418945 -41.4609375 33.4140625 C-41.43773437 32.31835938 -41.41453125 31.22265625 -41.390625 30.09375 C-41.38546875 28.9490625 -41.3803125 27.804375 -41.375 26.625 C-41.34939999 24.36707883 -41.31583503 22.10923073 -41.2734375 19.8515625 C-41.26747559 18.84947754 -41.26151367 17.84739258 -41.25537109 16.81494141 C-40.98778006 13.86530022 -40.2332455 11.677852 -39 9 C-34.05 8.505 -34.05 8.505 -29 8 C-27.87873219 4.20211302 -27.87873219 4.20211302 -28 1 C-27.34 1 -26.68 1 -26 1 C-25.53078125 1.80824219 -25.0615625 2.61648437 -24.578125 3.44921875 C-20.54402689 7.44053097 -16.21465552 6.78129321 -10.75 6.8125 C-9.71875 6.83763672 -8.6875 6.86277344 -7.625 6.88867188 C-5.08295011 6.94751562 -2.54262084 6.98381507 0 7 C0 4.69 0 2.38 0 0 Z M-25 9 C-24.67 9.66 -24.34 10.32 -24 11 C-23.67 10.34 -23.34 9.68 -23 9 C-23.66 9 -24.32 9 -25 9 Z M5 17 C4.67 17.99 4.34 18.98 4 20 C4.66 20.66 5.32 21.32 6 22 C6 20.35 6 18.7 6 17 C5.67 17 5.34 17 5 17 Z M-26 18 C-26.33 18.66 -26.66 19.32 -27 20 C-25.68 20 -24.36 20 -23 20 C-23.33 19.34 -23.66 18.68 -24 18 C-24.66 18 -25.32 18 -26 18 Z M-21 18 C-21 18.66 -21 19.32 -21 20 C-19.02 20 -17.04 20 -15 20 C-15.97850195 18.97895449 -16.97980427 17.9793879 -18 17 C-19.2236068 16.9254644 -19.2236068 16.9254644 -21 18 Z M-13 18 C-13.33 18.66 -13.66 19.32 -14 20 C-12.68 20 -11.36 20 -10 20 C-10 19.34 -10 18.68 -10 18 C-10.99 18 -11.98 18 -13 18 Z M-8 20 C-6.35 20 -4.7 20 -3 20 C-3 19.34 -3 18.68 -3 18 C-5.32357511 17.81509993 -5.32357511 17.81509993 -8 20 Z M-29 24 C-29 24.33 -29 24.66 -29 25 C-20.42 25 -11.84 25 -3 25 C-3 24.67 -3 24.34 -3 24 C-11.58 24 -20.16 24 -29 24 Z M5 23 C4.34 23.66 3.68 24.32 3 25 C3.99 25 4.98 25 6 25 C5.67 24.34 5.34 23.68 5 23 Z M-168 52 C-167.67 53.32 -167.34 54.64 -167 56 C-166.67 55.34 -166.34 54.68 -166 54 C-164.97127274 54.00222061 -163.94254547 54.00444122 -162.88264465 54.00672913 C-153.18626457 54.0270038 -143.48988879 54.04199302 -133.79349232 54.05181217 C-128.8085269 54.05702999 -123.82357861 54.06410769 -118.83862305 54.07543945 C-114.02757791 54.0863074 -109.21654924 54.09228514 -104.40549278 54.09487724 C-102.57029651 54.09672443 -100.73510114 54.10033151 -98.89991188 54.10573006 C-96.32884399 54.1129923 -93.75784408 54.11398875 -91.18676758 54.11352539 C-90.42863266 54.11712067 -89.67049774 54.12071594 -88.88938904 54.12442017 C-85.13241212 54.11709709 -81.65251557 53.90545566 -78 53 C-78 52.67 -78 52.34 -78 52 C-89.43916109 51.84634965 -100.87837854 51.69816785 -112.31770134 51.5570364 C-117.62899539 51.49133552 -122.94025106 51.42372572 -128.25146484 51.35180664 C-133.37367057 51.28251627 -138.49591639 51.21817055 -143.61822891 51.15730476 C-145.57594192 51.13316318 -147.5336335 51.10721672 -149.49129868 51.07946587 C-152.22577308 51.04100673 -154.96025218 51.00887052 -157.69482422 50.97827148 C-158.91833588 50.95885246 -158.91833588 50.95885246 -160.16656494 50.93904114 C-164.21328599 50.7995949 -164.21328599 50.7995949 -168 52 Z M-159 55 C-159.33 55.99 -159.66 56.98 -160 58 C-157.69 58 -155.38 58 -153 58 C-153 57.34 -153 56.68 -153 56 C-155.97 55.505 -155.97 55.505 -159 55 Z M-150 55 C-149.34 56.32 -148.68 57.64 -148 59 C-147.67 57.68 -147.34 56.36 -147 55 C-147.99 55 -148.98 55 -150 55 Z M-144 55 C-143.67 55.99 -143.34 56.98 -143 58 C-142.67 57.01 -142.34 56.02 -142 55 C-142.66 55 -143.32 55 -144 55 Z M-136 55 C-136 56.32 -136 57.64 -136 59 C-135.01 59 -134.02 59 -133 59 C-133 57.68 -133 56.36 -133 55 C-133.99 55 -134.98 55 -136 55 Z M-132 55 C-129.54908957 57.68433048 -127.71758616 58.91789741 -123.95703125 59.09765625 C-123.24933594 59.08605469 -122.54164063 59.07445312 -121.8125 59.0625 C-120.554375 59.041875 -119.29625 59.02125 -118 59 C-118 58.01 -118 57.02 -118 56 C-121.15506142 55.06380187 -123.96586502 54.8942877 -127.25 54.9375 C-128.58804688 54.95103516 -128.58804688 54.95103516 -129.953125 54.96484375 C-130.62859375 54.97644531 -131.3040625 54.98804688 -132 55 Z M-97 55 C-97.99 56.485 -97.99 56.485 -99 58 C-97.68 58.33 -96.36 58.66 -95 59 C-95 57.68 -95 56.36 -95 55 C-95.66 55 -96.32 55 -97 55 Z M-113 56 C-113 56.99 -113 57.98 -113 59 C-111.68 58.67 -110.36 58.34 -109 58 C-109.33 57.34 -109.66 56.68 -110 56 C-110.99 56 -111.98 56 -113 56 Z M-107 56 C-106.67 56.99 -106.34 57.98 -106 59 C-105.67 58.01 -105.34 57.02 -105 56 C-105.66 56 -106.32 56 -107 56 Z M-92 57 C-92 57.66 -92 58.32 -92 59 C-91.236875 58.979375 -90.47375 58.95875 -89.6875 58.9375 C-87 59 -87 59 -84 60 C-81.85744207 59.61067144 -81.85744207 59.61067144 -80 59 C-80.33 58.01 -80.66 57.02 -81 56 C-85.17481239 54.60839587 -87.90233084 55.63411028 -92 57 Z M-78 56 C-78.33 56.99 -78.66 57.98 -79 59 C-77.35 59 -75.7 59 -74 59 C-74 58.01 -74 57.02 -74 56 C-75.32 56 -76.64 56 -78 56 Z M-103 57 C-102.67 57.66 -102.34 58.32 -102 59 C-101.67 58.34 -101.34 57.68 -101 57 C-101.66 57 -102.32 57 -103 57 Z " fill="#000000" transform="translate(582,84)"/>
<path d="M0 0 C3.43742918 -0.05802698 6.87473253 -0.09360486 10.3125 -0.125 C11.28896484 -0.14175781 12.26542969 -0.15851563 13.27148438 -0.17578125 C14.20927734 -0.18222656 15.14707031 -0.18867187 16.11328125 -0.1953125 C16.97735596 -0.20578613 17.84143066 -0.21625977 18.73168945 -0.22705078 C21 0 21 0 24 2 C16.08 2 8.16 2 0 2 C0 1.34 0 0.68 0 0 Z " fill="#000000" transform="translate(330,107)"/>
<path d="M0 0 C1.65 0 3.3 0 5 0 C4.67 0.99 4.34 1.98 4 3 C4.66 3.66 5.32 4.32 6 5 C5.625 7.125 5.625 7.125 5 9 C4.01 9 3.02 9 2 9 C1.855625 7.88625 1.71125 6.7725 1.5625 5.625 C1.21627965 2.17857953 1.21627965 2.17857953 0 0 Z " fill="#000000" transform="translate(551,112)"/>
<path d="M0 0 C0 1.32 0 2.64 0 4 C-0.66 4 -1.32 4 -2 4 C-2 3.34 -2 2.68 -2 2 C-5.96 2 -9.92 2 -14 2 C-14 2.66 -14 3.32 -14 4 C-14.66 3.67 -15.32 3.34 -16 3 C-15.67 2.34 -15.34 1.68 -15 1 C-9.96109772 -0.0283474 -5.11310018 -0.08970351 0 0 Z " fill="#000000" transform="translate(351,117)"/>
<path d="M0 0 C14.19 0 28.38 0 43 0 C43 9 43 9 41 12 C38.078125 12.328125 38.078125 12.328125 34.25 12.25 C33.56131836 12.23759277 32.87263672 12.22518555 32.16308594 12.21240234 C29.7745244 12.16052266 27.38774652 12.08098683 25 12 C24.0615625 11.97389648 23.123125 11.94779297 22.15625 11.92089844 C19.18686665 11.83591937 16.21859824 11.73385841 13.25 11.625 C11.82155762 11.57907715 11.82155762 11.57907715 10.36425781 11.53222656 C9.01605957 11.47373535 9.01605957 11.47373535 7.640625 11.4140625 C6.84172852 11.3826416 6.04283203 11.3512207 5.21972656 11.31884766 C3 11 3 11 -1 9 C-0.67 6.03 -0.34 3.06 0 0 Z M1 2 C1 3.65 1 5.3 1 7 C1.33 7 1.66 7 2 7 C2 5.35 2 3.7 2 2 C1.67 2 1.34 2 1 2 Z M40 4 C41 6 41 6 41 6 Z M6 8 C6 8.33 6 8.66 6 9 C7.98 9 9.96 9 12 9 C12 8.67 12 8.34 12 8 C10.02 8 8.04 8 6 8 Z " fill="#000000" transform="translate(92,130)"/>
<path d="M0 0 C0.33 0 0.66 0 1 0 C1 1.98 1 3.96 1 6 C-0.65 6 -2.3 6 -4 6 C-4 4.68 -4 3.36 -4 2 C-2.68 2 -1.36 2 0 2 C0 1.34 0 0.68 0 0 Z " fill="#000000" transform="translate(353,128)"/>
<path d="M0 0 C10.05407603 -0.16100834 10.05407603 -0.16100834 13.9375 0.5 C21.21411989 1.68801957 28.76330452 1.31576281 36 0 C36 3.3 36 6.6 36 10 C31.96132839 9.88127168 27.92286858 9.75699341 23.88452148 9.62768555 C22.51217224 9.5845116 21.13977533 9.54282499 19.76733398 9.50268555 C17.78877932 9.44455608 15.8104003 9.3805429 13.83203125 9.31640625 C12.04889526 9.26141968 12.04889526 9.26141968 10.22973633 9.20532227 C7.38595153 9.02453589 4.77093195 8.64190592 2 8 C1.34 5.36 0.68 2.72 0 0 Z M33 5 C34 7 34 7 34 7 Z " fill="#000000" transform="translate(554,139)"/>
<path d="M0 0 C5.28 0 10.56 0 16 0 C16 4.29 16 8.58 16 13 C10.72 13 5.44 13 0 13 C0 12.67 0 12.34 0 12 C4.62 11.67 9.24 11.34 14 11 C14 8.03 14 5.06 14 2 C7.07 1.505 7.07 1.505 0 1 C0 0.67 0 0.34 0 0 Z " fill="#000000" transform="translate(467,153)"/>
<path d="M0 0 C0.33 1.32 0.66 2.64 1 4 C9.58 4 18.16 4 27 4 C26.34 5.98 25.68 7.96 25 10 C26.32 10 27.64 10 29 10 C29 8.02 29 6.04 29 4 C29.7425 4.020625 30.485 4.04125 31.25 4.0625 C33.93826222 4.11733104 33.93826222 4.11733104 36.1875 3.375 C36.785625 3.25125 37.38375 3.1275 38 3 C38.66 3.66 39.32 4.32 40 5 C40 4.34 40 3.68 40 3 C43.63 3 47.26 3 51 3 C51 3.66 51 4.32 51 5 C51.99902344 4.98839844 52.99804688 4.97679687 54.02734375 4.96484375 C55.31769531 4.95582031 56.60804688 4.94679687 57.9375 4.9375 C59.22527344 4.92589844 60.51304687 4.91429687 61.83984375 4.90234375 C65 5 65 5 66 6 C66.125 9 66.125 9 66 12 C65 13 65 13 61.98071289 13.09765625 C60.64466074 13.09069671 59.3086295 13.0786016 57.97265625 13.0625 C57.26854111 13.05871338 56.56442596 13.05492676 55.838974 13.05102539 C52.81518606 13.0346144 49.791531 13.00651544 46.76782227 12.97949219 C44.56527323 12.96145601 42.36274594 12.94932911 40.16015625 12.9375 C39.47365494 12.92920166 38.78715363 12.92090332 38.07984924 12.91235352 C34.41710117 12.8434687 34.41710117 12.8434687 31 14 C31 13.34 31 12.68 31 12 C30.34 12 29.68 12 29 12 C28.67 12.66 28.34 13.32 28 14 C25.4375 14.625 25.4375 14.625 23 15 C22.67 13.68 22.34 12.36 22 11 C21.01 11.495 21.01 11.495 20 12 C13.46666667 12.23333333 13.46666667 12.23333333 11 11 C11 11.66 11 12.32 11 13 C11.66 13.33 12.32 13.66 13 14 C9.04 14 5.08 14 1 14 C1 16.31 1 18.62 1 21 C0.67 21 0.34 21 0 21 C-0.16918268 19.41693353 -0.33523936 17.83353281 -0.5 16.25 C-0.5928125 15.36828125 -0.685625 14.4865625 -0.78125 13.578125 C-1 11 -1 11 -1 7 C-1.020625 5.948125 -1.04125 4.89625 -1.0625 3.8125 C-1 1 -1 1 0 0 Z M9 5 C8.67 6.65 8.34 8.3 8 10 C8.99 10.495 8.99 10.495 10 11 C10.99 10.67 11.98 10.34 13 10 C12.67 8.35 12.34 6.7 12 5 C11.01 5 10.02 5 9 5 Z M18 5 C17.67 6.32 17.34 7.64 17 9 C18.32 9.33 19.64 9.66 21 10 C20.67 8.35 20.34 6.7 20 5 C19.34 5 18.68 5 18 5 Z M3 6 C3 7.32 3 8.64 3 10 C3.66 10 4.32 10 5 10 C5 8.68 5 7.36 5 6 C4.34 6 3.68 6 3 6 Z M34 7 C34 7.99 34 8.98 34 10 C34.99 10 35.98 10 37 10 C37 9.01 37 8.02 37 7 C36.01 7 35.02 7 34 7 Z M41 7 C41.33 7.99 41.66 8.98 42 10 C42.99 10 43.98 10 45 10 C45 9.01 45 8.02 45 7 C43.68 7 42.36 7 41 7 Z M50 7 C50.33 8.65 50.66 10.3 51 12 C51.33 12 51.66 12 52 12 C52 10.35 52 8.7 52 7 C51.34 7 50.68 7 50 7 Z M58 8 C59 12 59 12 59 12 Z " fill="#000000" transform="translate(413,150)"/>
<path d="M0 0 C3.63 0 7.26 0 11 0 C11 4.95 11 9.9 11 15 C6.33521145 16.16619714 3.6964175 15.76990451 -1 15 C-2 14 -2 14 -2.1875 10.3125 C-2.15368121 6.5586147 -1.40222961 3.50557404 0 0 Z M2 5 C2 7.64 2 10.28 2 13 C2.33 13 2.66 13 3 13 C3 10.36 3 7.72 3 5 C2.67 5 2.34 5 2 5 Z M7 6 C6.67 7.98 6.34 9.96 6 12 C6.66 12 7.32 12 8 12 C8 10.02 8 8.04 8 6 C7.67 6 7.34 6 7 6 Z " fill="#000000" transform="translate(109,157)"/>
<path d="M0 0 C-0.33 1.32 -0.66 2.64 -1 4 C-1.33 3.01 -1.66 2.02 -2 1 C-4.31 1 -6.62 1 -9 1 C-8.34 5.62 -7.68 10.24 -7 15 C-8.32 15 -9.64 15 -11 15 C-11 10.05 -11 5.1 -11 0 C-2.25 -1.125 -2.25 -1.125 0 0 Z " fill="#000000" transform="translate(578,165)"/>
<path d="M0 0 C0.66 0 1.32 0 2 0 C3.20272819 2.40545638 3.10071472 3.94996953 3.0625 6.625 C3.05347656 7.44226563 3.04445313 8.25953125 3.03515625 9.1015625 C3.02355469 9.72804687 3.01195312 10.35453125 3 11 C1.35 11 -0.3 11 -2 11 C-2 10.34 -2 9.68 -2 9 C-2.99 8.34 -3.98 7.68 -5 7 C-4.34 6.34 -3.68 5.68 -3 5 C-3 5.66 -3 6.32 -3 7 C-2.01 7 -1.02 7 0 7 C-0.185625 6.030625 -0.37125 5.06125 -0.5625 4.0625 C-0.706875 3.051875 -0.85125 2.04125 -1 1 C-0.67 0.67 -0.34 0.34 0 0 Z " fill="#000000" transform="translate(576,170)"/>
<path d="M0 0 C0.99 0 1.98 0 3 0 C3 0.66 3 1.32 3 2 C2.34 2 1.68 2 1 2 C1 5.63 1 9.26 1 13 C8.92 13 16.84 13 25 13 C25 13.33 25 13.66 25 14 C16.14825279 14.91120927 7.81520504 15.46920084 -1 14 C-1.02685938 11.85423363 -1.04633088 9.70837355 -1.0625 7.5625 C-1.07410156 6.36753906 -1.08570313 5.17257813 -1.09765625 3.94140625 C-1 1 -1 1 0 0 Z " fill="#000000" transform="translate(206,171)"/>
<path d="M0 0 C0.33 0.66 0.66 1.32 1 2 C7.6 2 14.2 2 21 2 C21 2.66 21 3.32 21 4 C21.66 3.34 22.32 2.68 23 2 C23.99 2 24.98 2 26 2 C26 2.66 26 3.32 26 4 C26.49113281 3.67257813 26.98226563 3.34515625 27.48828125 3.0078125 C31.02736606 1.58777536 34.43936015 1.78837632 38.1875 1.875 C39.29254883 1.88853516 39.29254883 1.88853516 40.41992188 1.90234375 C42.28007846 1.92630161 44.1400738 1.96217099 46 2 C46.33 2 46.66 2 47 2 C54.66666667 2 62.33333333 2 70 2 C69.67 3.32 69.34 4.64 69 6 C68.01 5.34 67.02 4.68 66 4 C66.01160156 4.63808594 66.02320313 5.27617187 66.03515625 5.93359375 C66.04417969 6.75988281 66.05320312 7.58617187 66.0625 8.4375 C66.07410156 9.26121094 66.08570313 10.08492187 66.09765625 10.93359375 C66 13 66 13 65 14 C63.31391034 14.07205511 61.62499341 14.08386068 59.9375 14.0625 C59.01839844 14.05347656 58.09929687 14.04445312 57.15234375 14.03515625 C56.44207031 14.02355469 55.73179687 14.01195312 55 14 C54.505 12.515 54.505 12.515 54 11 C53.34 11.33 52.68 11.66 52 12 C52 12.66 52 13.32 52 14 C49.525 13.505 49.525 13.505 47 13 C47 12.01 47 11.02 47 10 C46.4225 10.680625 45.845 11.36125 45.25 12.0625 C44.5075 12.701875 43.765 13.34125 43 14 C40.75 13.75 40.75 13.75 39 13 C39.33 12.01 39.66 11.02 40 10 C38.35 10 36.7 10 35 10 C35.495 11.485 35.495 11.485 36 13 C34.35 13.33 32.7 13.66 31 14 C30.505 12.515 30.505 12.515 30 11 C29.34 10.34 28.68 9.68 28 9 C28.99 8.67 29.98 8.34 31 8 C31 7.34 31 6.68 31 6 C29.35 6 27.7 6 26 6 C26.33 6.66 26.66 7.32 27 8 C27.039992 9.99960012 27.04346799 12.00047242 27 14 C25.35 14 23.7 14 22 14 C21.875 8.25 21.875 8.25 23 6 C21.35 6 19.7 6 18 6 C18 8.31 18 10.62 18 13 C16.0625 13.5625 16.0625 13.5625 14 14 C13 13 13 13 12.9375 9.4375 C12.958125 8.303125 12.97875 7.16875 13 6 C11.68 6.33 10.36 6.66 9 7 C9.99 8.485 9.99 8.485 11 10 C10.34 10 9.68 10 9 10 C9.66 11.32 10.32 12.64 11 14 C7.42355152 15.2380014 4.66305234 14.74926071 1 14 C0.67 14.66 0.34 15.32 0 16 C-0.66 13.69 -1.32 11.38 -2 9 C-0.68 9.33 0.64 9.66 2 10 C2 9.34 2 8.68 2 8 C1.01 7.67 0.02 7.34 -1 7 C-0.67 4.69 -0.34 2.38 0 0 Z M37 3 C41 4 41 4 41 4 Z M2 4 C2.33 5.32 2.66 6.64 3 8 C3.66 8 4.32 8 5 8 C5 6.35 5 4.7 5 3 C3.7763932 2.9254644 3.7763932 2.9254644 2 4 Z M35 6 C35.33 6.99 35.66 7.98 36 9 C37.32 8.67 38.64 8.34 40 8 C40 7.34 40 6.68 40 6 C38.35 6 36.7 6 35 6 Z M44 6 C44 6.99 44 7.98 44 9 C44.99 9 45.98 9 47 9 C47 8.01 47 7.02 47 6 C46.01 6 45.02 6 44 6 Z M52 6 C52 6.99 52 7.98 52 9 C52.99 9 53.98 9 55 9 C54.67 8.01 54.34 7.02 54 6 C53.34 6 52.68 6 52 6 Z M60 7 C60 7.66 60 8.32 60 9 C60.99 8.67 61.98 8.34 63 8 C62.01 7.67 61.02 7.34 60 7 Z M61 10 C60.67 10.66 60.34 11.32 60 12 C60.99 11.67 61.98 11.34 63 11 C62.34 10.67 61.68 10.34 61 10 Z " fill="#000000" transform="translate(413,172)"/>
<path d="M0 0 C0.98871094 -0.02578125 1.97742188 -0.0515625 2.99609375 -0.078125 C3.84300781 0.03015625 4.68992187 0.1384375 5.5625 0.25 C8.05560643 3.98965964 7.6228261 5.54070641 7.1875 9.9375 C7.02121094 11.70673828 7.02121094 11.70673828 6.8515625 13.51171875 C6.70847656 14.86716797 6.70847656 14.86716797 6.5625 16.25 C4.58340602 16.27686553 2.60421029 16.29633375 0.625 16.3125 C-0.47714844 16.32410156 -1.57929687 16.33570313 -2.71484375 16.34765625 C-5.4375 16.25 -5.4375 16.25 -6.4375 15.25 C-6.53659302 12.91839945 -6.56720504 10.58370058 -6.5625 8.25 C-6.56507812 6.97125 -6.56765625 5.6925 -6.5703125 4.375 C-6.35377159 -0.72008015 -4.63855726 0.07238321 0 0 Z M-3.4375 6.25 C-3.60431109 9.16652174 -3.60431109 9.16652174 -3.4375 12.25 C-2.7775 12.91 -2.1175 13.57 -1.4375 14.25 C-0.42209888 10.14776415 -0.42209888 10.14776415 -1.4375 6.25 C-2.0975 6.25 -2.7575 6.25 -3.4375 6.25 Z " fill="#000000" transform="translate(112.4375,183.75)"/>
<path d="M0 0 C0.66 0 1.32 0 2 0 C2.02283554 0.58421219 2.04567108 1.16842438 2.06919861 1.77033997 C2.31112492 7.95315522 2.55486012 14.13589744 2.79956055 20.31860352 C2.8901765 22.61383332 2.98035922 24.90908028 3.07006836 27.2043457 C3.61516315 41.14232814 4.21921914 55.07309721 5 69 C5.99 69.33 6.98 69.66 8 70 C8.495 73.465 8.495 73.465 9 77 C9.969375 76.979375 10.93875 76.95875 11.9375 76.9375 C15 77 15 77 16 78 C16.07325168 80.86267567 16.09238205 83.700719 16.0625 86.5625 C16.05798828 87.36880859 16.05347656 88.17511719 16.04882812 89.00585938 C16.03700518 91.00393756 16.01906914 93.00197783 16 95 C15.67 95 15.34 95 15 95 C14.83069605 93.10440036 14.66467136 91.20850769 14.5 89.3125 C14.4071875 88.25675781 14.314375 87.20101562 14.21875 86.11328125 C14.0276585 83.39363975 13.95956065 80.72460144 14 78 C12.03243548 78.03122943 12.03243548 78.03122943 10 79 C8.6954344 81.99615946 8.6954344 81.99615946 8 85 C8.66 85 9.32 85 10 85 C10.495 88.96 10.495 88.96 11 93 C10.34 93 9.68 93 9 93 C9.020625 93.969375 9.04125 94.93875 9.0625 95.9375 C9 99 9 99 8 100 C6.14712498 100.07226502 4.29166122 100.0838122 2.4375 100.0625 C0.91962891 100.04896484 0.91962891 100.04896484 -0.62890625 100.03515625 C-1.41136719 100.02355469 -2.19382812 100.01195312 -3 100 C-3 99.01 -3 98.02 -3 97 C-0.36 97.33 2.28 97.66 5 98 C5.33 97.34 5.66 96.68 6 96 C5.37351562 96.01160156 4.74703125 96.02320313 4.1015625 96.03515625 C3.28429687 96.04417969 2.46703125 96.05320312 1.625 96.0625 C0.81289063 96.07410156 0.00078125 96.08570313 -0.8359375 96.09765625 C-3 96 -3 96 -5 95 C-6.87379605 94.92966231 -8.75001102 94.9156978 -10.625 94.9375 C-12.12933594 94.95103516 -12.12933594 94.95103516 -13.6640625 94.96484375 C-14.43492187 94.97644531 -15.20578125 94.98804688 -16 95 C-16 95.66 -16 96.32 -16 97 C-15.37351562 96.97679687 -14.74703125 96.95359375 -14.1015625 96.9296875 C-13.28429687 96.91164063 -12.46703125 96.89359375 -11.625 96.875 C-10.81289063 96.85179687 -10.00078125 96.82859375 -9.1640625 96.8046875 C-7 97 -7 97 -5 99 C-6.60397277 99.16852247 -8.2081869 99.33474886 -9.8125 99.5 C-10.70582031 99.5928125 -11.59914063 99.685625 -12.51953125 99.78125 C-15 100 -15 100 -18 100 C-20.56133056 90.71517672 -20.56133056 90.71517672 -20 86 C-17 84 -17 84 -14.8125 84.375 C-14.214375 84.58125 -13.61625 84.7875 -13 85 C-13.495 85.99 -13.495 85.99 -14 87 C-16.0625 87.625 -16.0625 87.625 -18 88 C-18 88.99 -18 89.98 -18 91 C-5.37889834 92.78206065 -5.37889834 92.78206065 7 91 C7.495 89.02 7.495 89.02 8 87 C2.06 87 -3.88 87 -10 87 C-10.33 86.01 -10.66 85.02 -11 84 C-5.06 84.33 0.88 84.66 7 85 C6.67 84.34 6.34 83.68 6 83 C3.31264212 82.83071761 0.62515116 82.6645047 -2.0625 82.5 C-2.81466797 82.45230469 -3.56683594 82.40460938 -4.34179688 82.35546875 C-5.08623047 82.31035156 -5.83066406 82.26523437 -6.59765625 82.21875 C-7.3364502 82.17363281 -8.07524414 82.12851562 -8.83642578 82.08203125 C-10.86750633 82.00502346 -12.90265547 82.07557718 -14.93359375 82.15625 C-16.45146484 82.07890625 -16.45146484 82.07890625 -18 82 C-18.66 81.01 -19.32 80.02 -20 79 C-22.56282742 78.27034634 -22.56282742 78.27034634 -25 78 C-25.33 74.7 -25.66 71.4 -26 68 C-20.15111957 66.98105924 -14.49080831 66.88201547 -8.5625 66.9375 C-7.64017578 66.94201172 -6.71785156 66.94652344 -5.76757812 66.95117188 C-3.51164952 66.96286062 -1.25586033 66.97924545 1 67 C0.98747192 66.36710052 0.97494385 65.73420105 0.96203613 65.0821228 C0.83062668 58.42978005 0.70115504 51.77740149 0.57275391 45.125 C0.52473741 42.65005563 0.47624474 40.17512044 0.42724609 37.70019531 C-0.09464482 11.30742646 -0.09464482 11.30742646 0 0 Z M-18 70 C-18.33 70.66 -18.66 71.32 -19 72 C-20.32 71.67 -21.64 71.34 -23 71 C-23 71.99 -23 72.98 -23 74 C-22.360625 74.268125 -21.72125 74.53625 -21.0625 74.8125 C-19 76 -19 76 -18 79 C-15.51004335 80.24497833 -13.81005089 80.12934372 -11.02734375 80.1328125 C-9.55491211 80.13474609 -9.55491211 80.13474609 -8.05273438 80.13671875 C-7.02470703 80.13285156 -5.99667969 80.12898438 -4.9375 80.125 C-3.3896582 80.13080078 -3.3896582 80.13080078 -1.81054688 80.13671875 C-0.83021484 80.13542969 0.15011719 80.13414062 1.16015625 80.1328125 C2.06386963 80.13168457 2.96758301 80.13055664 3.89868164 80.12939453 C5.98714485 80.23362522 5.98714485 80.23362522 7 79 C7.04092937 76.66702567 7.04241723 74.33294775 7 72 C6.07058594 71.86722656 5.14117188 71.73445313 4.18359375 71.59765625 C-7 70 -7 70 -10.90234375 69.43359375 C-14.52292143 68.85585965 -14.52292143 68.85585965 -18 70 Z " fill="#000000" transform="translate(599,190)"/>
<path d="M0 0 C1.51400391 0.01740234 1.51400391 0.01740234 3.05859375 0.03515625 C4.07050781 0.04417969 5.08242188 0.05320313 6.125 0.0625 C7.29869141 0.07990234 7.29869141 0.07990234 8.49609375 0.09765625 C8.49609375 2.07765625 8.49609375 4.05765625 8.49609375 6.09765625 C7.50609375 6.42765625 6.51609375 6.75765625 5.49609375 7.09765625 C5.49609375 6.43765625 5.49609375 5.77765625 5.49609375 5.09765625 C4.50609375 5.09765625 3.51609375 5.09765625 2.49609375 5.09765625 C2.16609375 5.75765625 1.83609375 6.41765625 1.49609375 7.09765625 C-1.50390625 7.09765625 -1.50390625 7.09765625 -3.50390625 6.09765625 C-3.54662725 4.4315372 -3.54454457 2.7638274 -3.50390625 1.09765625 C-2.50390625 0.09765625 -2.50390625 0.09765625 0 0 Z M-2.50390625 1.09765625 C-1.51390625 2.58265625 -1.51390625 2.58265625 -0.50390625 4.09765625 C3.07966616 4.34781498 3.07966616 4.34781498 6.49609375 4.09765625 C6.82609375 3.10765625 7.15609375 2.11765625 7.49609375 1.09765625 C4.19609375 1.09765625 0.89609375 1.09765625 -2.50390625 1.09765625 Z " fill="#000000" transform="translate(570.50390625,191.90234375)"/>
<path d="M0 0 C6.27 0 12.54 0 19 0 C15.13209648 2.57860235 12.23386085 2.01114505 7.8125 1.625 C7.06291016 1.56828125 6.31332031 1.5115625 5.54101562 1.453125 C3.69323441 1.31189331 1.846488 1.15723833 0 1 C0 0.67 0 0.34 0 0 Z " fill="#000000" transform="translate(439,199)"/>
<path d="M0 0 C-0.66 1.32 -1.32 2.64 -2 4 C-3.65 3.67 -5.3 3.34 -7 3 C-7 2.01 -7 1.02 -7 0 C-3.98968256 -0.93423645 -3.13349732 -1.04449911 0 0 Z " fill="#000000" transform="translate(574,204)"/>
<path d="M0 0 C1.86323318 0.25288812 3.71708432 0.57690153 5.5625 0.9375 C6.57441406 1.13214844 7.58632812 1.32679688 8.62890625 1.52734375 C9.80259766 1.76130859 9.80259766 1.76130859 11 2 C11.09706112 8.11485027 10.77040851 13.93303301 10 20 C6.37 20 2.74 20 -1 20 C-1.02683697 16.85411056 -1.04675902 13.70844729 -1.0625 10.5625 C-1.07087891 9.66466797 -1.07925781 8.76683594 -1.08789062 7.84179688 C-1.09111328 6.98779297 -1.09433594 6.13378906 -1.09765625 5.25390625 C-1.10551147 4.06776733 -1.10551147 4.06776733 -1.11352539 2.85766602 C-1 1 -1 1 0 0 Z M2 13 C2.33 13.99 2.66 14.98 3 16 C3.33 15.01 3.66 14.02 4 13 C3.34 13 2.68 13 2 13 Z M6 13 C7 15 7 15 7 15 Z " fill="#000000" transform="translate(140,215)"/>
<path d="M0 0 C1.65 0 3.3 0 5 0 C5 6.93 5 13.86 5 21 C2 22 2 22 -1 21 C-1.02888146 17.68751813 -1.04675799 14.37506833 -1.0625 11.0625 C-1.07087891 10.11697266 -1.07925781 9.17144531 -1.08789062 8.19726562 C-1.09111328 7.29814453 -1.09433594 6.39902344 -1.09765625 5.47265625 C-1.10289307 4.64000244 -1.10812988 3.80734863 -1.11352539 2.94946289 C-1 1 -1 1 0 0 Z " fill="#000000" transform="translate(212,215)"/>
<path d="M0 0 C1.67542976 0.28604898 3.34385343 0.61781233 5 1 C5.02888146 4.31248187 5.04675799 7.62493167 5.0625 10.9375 C5.07087891 11.88302734 5.07925781 12.82855469 5.08789062 13.80273438 C5.09111328 14.70185547 5.09433594 15.60097656 5.09765625 16.52734375 C5.10289307 17.35999756 5.10812988 18.19265137 5.11352539 19.05053711 C5 21 5 21 4 22 C2.33382885 22.04063832 0.66611905 22.042721 -1 22 C-1.94991032 19.15026904 -2.07639826 17.7196731 -1.9140625 14.8046875 C-1.87023437 14.00675781 -1.82640625 13.20882812 -1.78125 12.38671875 C-1.7296875 11.55785156 -1.678125 10.72898438 -1.625 9.875 C-1.58117187 9.03839844 -1.53734375 8.20179688 -1.4921875 7.33984375 C-1.12985424 1.12985424 -1.12985424 1.12985424 0 0 Z " fill="#000000" transform="translate(246,215)"/>
<path d="M0 0 C1.32 0 2.64 0 4 0 C4 6.93 4 13.86 4 21 C3.01 21.33 2.02 21.66 1 22 C0.34 21.67 -0.32 21.34 -1 21 C-1.02895976 17.87501937 -1.04678483 14.7500731 -1.0625 11.625 C-1.07087891 10.73554688 -1.07925781 9.84609375 -1.08789062 8.9296875 C-1.09111328 8.07890625 -1.09433594 7.228125 -1.09765625 6.3515625 C-1.10289307 5.56604004 -1.10812988 4.78051758 -1.11352539 3.97119141 C-1 2 -1 2 0 0 Z " fill="#000000" transform="translate(278,216)"/>
<path d="M0 0 C0.99 0.33 1.98 0.66 3 1 C3 7.93 3 14.86 3 22 C1.35 22 -0.3 22 -2 22 C-2 16.06 -2 10.12 -2 4 C-0.68 4 0.64 4 2 4 C2 3.34 2 2.68 2 2 C0.68 2.33 -0.64 2.66 -2 3 C-2 2.34 -2 1.68 -2 1 C-1.34 0.67 -0.68 0.34 0 0 Z " fill="#000000" transform="translate(313,216)"/>
<path d="M0 0 C0.89847656 -0.00257813 1.79695313 -0.00515625 2.72265625 -0.0078125 C4.9375 0.125 4.9375 0.125 5.9375 1.125 C6.03725032 3.63636104 6.07632183 6.11403415 6.0625 8.625 C6.06636719 9.32753906 6.07023437 10.03007812 6.07421875 10.75390625 C6.06411378 15.99838622 6.06411378 15.99838622 4.9375 17.125 C3.12822719 17.24987758 1.31353893 17.30070846 -0.5 17.3125 C-1.48871094 17.32667969 -2.47742188 17.34085938 -3.49609375 17.35546875 C-6.0625 17.125 -6.0625 17.125 -8.0625 15.125 C-8.109375 11.90234375 -8.109375 11.90234375 -7.8125 8.0625 C-7.72484375 6.79277344 -7.6371875 5.52304688 -7.546875 4.21484375 C-7.38703125 3.19519531 -7.2271875 2.17554688 -7.0625 1.125 C-4.56110398 -0.12569801 -2.78857309 -0.00802467 0 0 Z M-4.0625 6.125 C-4.0625 8.435 -4.0625 10.745 -4.0625 13.125 C-3.7325 13.125 -3.4025 13.125 -3.0625 13.125 C-3.0625 10.815 -3.0625 8.505 -3.0625 6.125 C-3.3925 6.125 -3.7225 6.125 -4.0625 6.125 Z M0.9375 6.125 C1.9375 8.125 1.9375 8.125 1.9375 8.125 Z " fill="#000000" transform="translate(112.0625,216.875)"/>
<path d="M0 0 C1.98 0.495 1.98 0.495 4 1 C4.33 5.29 4.66 9.58 5 14 C3.35 13.67 1.7 13.34 0 13 C-0.96661363 9.87819599 -0.98988909 7.47916205 -0.5625 4.25 C-0.46066406 3.45078125 -0.35882813 2.6515625 -0.25390625 1.828125 C-0.17011719 1.22484375 -0.08632813 0.6215625 0 0 Z M1 11 C1.66 11.66 2.32 12.32 3 13 C3 12.34 3 11.68 3 11 C2.34 11 1.68 11 1 11 Z " fill="#000000" transform="translate(342,224)"/>
<path d="M0 0 C0.66 0 1.32 0 2 0 C2 5.61 2 11.22 2 17 C0.68 16.34 -0.64 15.68 -2 15 C-2 14.34 -2 13.68 -2 13 C-1.34 13 -0.68 13 0 13 C0 11.68 0 10.36 0 9 C-2.31 9 -4.62 9 -7 9 C-6.67 7.68 -6.34 6.36 -6 5 C-4.35 5.33 -2.7 5.66 -1 6 C-1.020625 5.195625 -1.04125 4.39125 -1.0625 3.5625 C-1 1 -1 1 0 0 Z " fill="#000000" transform="translate(544,225)"/>
<path d="M0 0 C0.66 0.33 1.32 0.66 2 1 C2 2.65 2 4.3 2 6 C0.68 5.67 -0.64 5.34 -2 5 C-1.34 3.35 -0.68 1.7 0 0 Z " fill="#000000" transform="translate(578,226)"/>
<path d="M0 0 C2.0625 0.4375 2.0625 0.4375 4 1 C4 2.65 4 4.3 4 6 C2.68 6.33 1.36 6.66 0 7 C-0.38133299 5.0085944 -0.71325582 3.00720923 -1 1 C-0.67 0.67 -0.34 0.34 0 0 Z " fill="#000000" transform="translate(373,227)"/>
<path d="M0 0 C0.99 0.33 1.98 0.66 3 1 C3 2.98 3 4.96 3 7 C1.68 7.33 0.36 7.66 -1 8 C-1.04241723 5.66705225 -1.04092937 3.33297433 -1 1 C-0.67 0.67 -0.34 0.34 0 0 Z " fill="#000000" transform="translate(405,228)"/>
<path d="M0 0 C1.32 0 2.64 0 4 0 C4 3.3 4 6.6 4 10 C3.67 9.01 3.34 8.02 3 7 C2.01 7 1.02 7 0 7 C0 4.69 0 2.38 0 0 Z " fill="#000000" transform="translate(438,229)"/>
<path d="M0 0 C1.32 0 2.64 0 4 0 C4.33 3.3 4.66 6.6 5 10 C4.01 10.495 4.01 10.495 3 11 C2.67 10.01 2.34 9.02 2 8 C1.34 8.66 0.68 9.32 0 10 C0 6.7 0 3.4 0 0 Z " fill="#000000" transform="translate(471,229)"/>
<path d="M0 0 C0.99 0 1.98 0 3 0 C3.86625 -0.020625 4.7325 -0.04125 5.625 -0.0625 C8 0 8 0 9 1 C9.07258946 3.18639453 9.08373783 5.37500389 9.0625 7.5625 C9.05347656 8.76003906 9.04445313 9.95757812 9.03515625 11.19140625 C9.02355469 12.11824219 9.01195312 13.04507812 9 14 C8.67 14 8.34 14 8 14 C7.67 11.03 7.34 8.06 7 5 C4.69 5 2.38 5 0 5 C-0.5625 3.0625 -0.5625 3.0625 -1 1 C-0.67 0.67 -0.34 0.34 0 0 Z " fill="#000000" transform="translate(537,256)"/>
<path d="M0 0 C11.88 0 23.76 0 36 0 C36 0.33 36 0.66 36 1 C24.12 1 12.24 1 0 1 C0 0.67 0 0.34 0 0 Z " fill="#000000" transform="translate(319,271)"/>
<path d="M0 0 C0 0.66 0 1.32 0 2 C1.97536745 1.65213292 1.97536745 1.65213292 4 1 C4.33 0.34 4.66 -0.32 5 -1 C5.66 -1 6.32 -1 7 -1 C7 -0.34 7 0.32 7 1 C8.4540625 0.7525 8.4540625 0.7525 9.9375 0.5 C14.29911195 -0.13070152 18.60321167 -0.07668817 23 0 C23.99 0 24.98 0 26 0 C26.495 1.485 26.495 1.485 27 3 C27.66 3.33 28.32 3.66 29 4 C29.33 2.35 29.66 0.7 30 -1 C30.495 -0.01 30.495 -0.01 31 1 C39.58 1 48.16 1 57 1 C57 1.33 57 1.66 57 2 C48.42 2 39.84 2 31 2 C31 2.99 31 3.98 31 5 C29.02 5 27.04 5 25 5 C24.505 3.515 24.505 3.515 24 2 C15.585 2.495 15.585 2.495 7 3 C5.8517315 5.296537 5.88438825 6.58313167 5.90234375 9.1328125 C5.90717773 10.34130859 5.90717773 10.34130859 5.91210938 11.57421875 C5.92048828 12.41597656 5.92886719 13.25773437 5.9375 14.125 C5.94201172 14.97449219 5.94652344 15.82398438 5.95117188 16.69921875 C5.96297126 18.79950909 5.98090694 20.8997633 6 23 C5.34 23 4.68 23 4 23 C3.505 13.595 3.505 13.595 3 4 C2.34 3.67 1.68 3.34 1 3 C1 5.97 1 8.94 1 12 C0.34 12 -0.32 12 -1 12 C-1.33 8.7 -1.66 5.4 -2 2 C-5.3 2 -8.6 2 -12 2 C-12.33 1.34 -12.66 0.68 -13 0 C-11.20909747 -0.19466332 -9.41723495 -0.38051213 -7.625 -0.5625 C-6.12839844 -0.71912109 -6.12839844 -0.71912109 -4.6015625 -0.87890625 C-2 -1 -2 -1 0 0 Z " fill="#000000" transform="translate(392,272)"/>
<path d="M0 0 C0 1.98 0 3.96 0 6 C-0.99 6 -1.98 6 -3 6 C-3.33 5.01 -3.66 4.02 -4 3 C-8.29 2.67 -12.58 2.34 -17 2 C-17 1.67 -17 1.34 -17 1 C-11.29014022 0.25983299 -5.75813575 -0.10469338 0 0 Z " fill="#000000" transform="translate(486,273)"/>
<path d="M0 0 C3 3 3 3 3.07421875 4.9375 C2.94660156 5.618125 2.81898438 6.29875 2.6875 7 C2.2567873 9.44533661 2 11.49207501 2 14 C1.34 14 0.68 14 0 14 C0 9.38 0 4.76 0 0 Z " fill="#000000" transform="translate(537,282)"/>
<path d="M0 0 C2 2 2 2 2.1953125 5.0390625 C2.17210937 6.22242188 2.14890625 7.40578125 2.125 8.625 C2.10695313 9.81351562 2.08890625 11.00203125 2.0703125 12.2265625 C2.04710937 13.14179688 2.02390625 14.05703125 2 15 C-0.97 14.505 -0.97 14.505 -4 14 C-4 13.34 -4 12.68 -4 12 C-3.01 12 -2.02 12 -1 12 C-0.67 9.69 -0.34 7.38 0 5 C-1.32 4.67 -2.64 4.34 -4 4 C-2.68 2.68 -1.36 1.36 0 0 Z " fill="#000000" transform="translate(545,282)"/>
<path d="M0 0 C0.33 0 0.66 0 1 0 C1.12117187 0.91523438 1.24234375 1.83046875 1.3671875 2.7734375 C1.53476562 3.96195312 1.70234375 5.15046875 1.875 6.375 C2.03742187 7.55835938 2.19984375 8.74171875 2.3671875 9.9609375 C2.7302585 13.09566659 2.7302585 13.09566659 5 15 C3.02 15 1.04 15 -1 15 C-0.67 10.05 -0.34 5.1 0 0 Z " fill="#000000" transform="translate(614,288)"/>
<path d="M0 0 C1.40282227 -0.00193359 1.40282227 -0.00193359 2.83398438 -0.00390625 C4.3102832 0.00189453 4.3102832 0.00189453 5.81640625 0.0078125 C6.79673828 0.00394531 7.77707031 0.00007813 8.78710938 -0.00390625 C9.72361328 -0.00261719 10.66011719 -0.00132812 11.625 0 C12.91942017 0.00169189 12.91942017 0.00169189 14.23999023 0.00341797 C16.37890625 0.1328125 16.37890625 0.1328125 18.37890625 1.1328125 C18.40576563 3.27857887 18.42523713 5.42443895 18.44140625 7.5703125 C18.45300781 8.76527344 18.46460938 9.96023438 18.4765625 11.19140625 C18.37890625 14.1328125 18.37890625 14.1328125 17.37890625 15.1328125 C14.53553718 15.2343614 11.72216843 15.273574 8.87890625 15.2578125 C8.06115723 15.25587891 7.2434082 15.25394531 6.40087891 15.25195312 C0.99306077 15.21317968 -4.2652325 14.92627343 -9.62109375 14.1328125 C-9.62109375 13.8028125 -9.62109375 13.4728125 -9.62109375 13.1328125 C2.75390625 12.6378125 2.75390625 12.6378125 15.37890625 12.1328125 C15.70890625 9.1628125 16.03890625 6.1928125 16.37890625 3.1328125 C14.95835937 3.15601563 13.5378125 3.17921875 12.07421875 3.203125 C10.21745316 3.22188021 8.3606819 3.24008067 6.50390625 3.2578125 C5.09818359 3.28294922 5.09818359 3.28294922 3.6640625 3.30859375 C2.76816406 3.31503906 1.87226562 3.32148438 0.94921875 3.328125 C-0.29190674 3.34383545 -0.29190674 3.34383545 -1.55810547 3.35986328 C-3.62109375 3.1328125 -3.62109375 3.1328125 -5.62109375 1.1328125 C-4.00423301 -0.48404824 -2.23033225 0.00291901 0 0 Z " fill="#000000" transform="translate(626.62109375,300.8671875)"/>
<path d="M0 0 C19.47 0 38.94 0 59 0 C59 0.33 59 0.66 59 1 C39.53 1 20.06 1 0 1 C0 0.67 0 0.34 0 0 Z " fill="#000000" transform="translate(518,313)"/>
</svg>
